<svg xmlns="http://www.w3.org/2000/svg" width="1024" height="768" viewBox="0 0 1024 768" fill="none">
  <defs>
    <linearGradient id="ground" x1="240" y1="330" x2="760" y2="690" gradientUnits="userSpaceOnUse">
      <stop stop-color="#244C48"/>
      <stop offset="1" stop-color="#112825"/>
    </linearGradient>
    <linearGradient id="road" x1="300" y1="390" x2="720" y2="630" gradientUnits="userSpaceOnUse">
      <stop stop-color="#3A4B50"/>
      <stop offset="1" stop-color="#1B292E"/>
    </linearGradient>
    <linearGradient id="cyanFace" x1="0" y1="0" x2="1" y2="1">
      <stop stop-color="#2A7892"/>
      <stop offset="1" stop-color="#123845"/>
    </linearGradient>
    <filter id="glow" x="-80%" y="-80%" width="260%" height="260%">
      <feGaussianBlur stdDeviation="9" result="blur"/>
      <feMerge><feMergeNode in="blur"/><feMergeNode in="SourceGraphic"/></feMerge>
    </filter>
    <filter id="soft" x="-40%" y="-40%" width="180%" height="180%">
      <feGaussianBlur stdDeviation="16"/>
    </filter>
  </defs>
<ellipse cx="512" cy="640" rx="260" ry="70" fill="#02080A" opacity="0.52" filter="url(#soft)"/>
<polygon points="512,405 812,555 512,705 212,555" fill="#21463F" stroke="#3E8179" opacity="0.98"/>
<ellipse cx="330" cy="457.3" rx="57.04" ry="20.16" fill="#02080C" opacity="0.42" filter="url(#soft)"/>
<polygon points="284.0,381.0 330,402 330,472 284.0,451.0" fill="#142C35"/>
<polygon points="376.0,381.0 330,402 330,472 376.0,451.0" fill="#265B69"/>
<polygon points="330,360 376.0,381.0 330,402 284.0,381.0" fill="#68D8EB"/>
<rect x="306.0" y="420.0" width="10" height="7" rx="1.5" fill="#FFD77A" opacity="0.92"/>
<rect x="325.0" y="420.0" width="10" height="7" rx="1.5" fill="#8FEAFF" opacity="0.92"/>
<rect x="344.0" y="420.0" width="10" height="7" rx="1.5" fill="#8FEAFF" opacity="0.92"/>
<rect x="299" y="377" width="62" height="8" rx="4" fill="#55DEFF" opacity="0.85"/>
<ellipse cx="445" cy="465.3" rx="57.04" ry="20.16" fill="#02080C" opacity="0.42" filter="url(#soft)"/>
<polygon points="399.0,389.0 445,410 445,480 399.0,459.0" fill="#142C35"/>
<polygon points="491.0,389.0 445,410 445,480 491.0,459.0" fill="#265B69"/>
<polygon points="445,368 491.0,389.0 445,410 399.0,389.0" fill="#68D8EB"/>
<rect x="421.0" y="428.0" width="10" height="7" rx="1.5" fill="#FFD77A" opacity="0.92"/>
<rect x="440.0" y="428.0" width="10" height="7" rx="1.5" fill="#8FEAFF" opacity="0.92"/>
<rect x="459.0" y="428.0" width="10" height="7" rx="1.5" fill="#8FEAFF" opacity="0.92"/>
<rect x="414" y="385" width="62" height="8" rx="4" fill="#55DEFF" opacity="0.85"/>
<ellipse cx="560" cy="473.3" rx="57.04" ry="20.16" fill="#02080C" opacity="0.42" filter="url(#soft)"/>
<polygon points="514.0,397.0 560,418 560,488 514.0,467.0" fill="#142C35"/>
<polygon points="606.0,397.0 560,418 560,488 606.0,467.0" fill="#265B69"/>
<polygon points="560,376 606.0,397.0 560,418 514.0,397.0" fill="#68D8EB"/>
<rect x="536.0" y="436.0" width="10" height="7" rx="1.5" fill="#FFD77A" opacity="0.92"/>
<rect x="555.0" y="436.0" width="10" height="7" rx="1.5" fill="#8FEAFF" opacity="0.92"/>
<rect x="574.0" y="436.0" width="10" height="7" rx="1.5" fill="#8FEAFF" opacity="0.92"/>
<rect x="529" y="393" width="62" height="8" rx="4" fill="#55DEFF" opacity="0.85"/>
<ellipse cx="675" cy="481.3" rx="57.04" ry="20.16" fill="#02080C" opacity="0.42" filter="url(#soft)"/>
<polygon points="629.0,405.0 675,426 675,496 629.0,475.0" fill="#142C35"/>
<polygon points="721.0,405.0 675,426 675,496 721.0,475.0" fill="#265B69"/>
<polygon points="675,384 721.0,405.0 675,426 629.0,405.0" fill="#68D8EB"/>
<rect x="651.0" y="444.0" width="10" height="7" rx="1.5" fill="#FFD77A" opacity="0.92"/>
<rect x="670.0" y="444.0" width="10" height="7" rx="1.5" fill="#8FEAFF" opacity="0.92"/>
<rect x="689.0" y="444.0" width="10" height="7" rx="1.5" fill="#8FEAFF" opacity="0.92"/>
<rect x="644" y="401" width="62" height="8" rx="4" fill="#55DEFF" opacity="0.85"/>
<ellipse cx="354" cy="527.3" rx="57.04" ry="20.16" fill="#02080C" opacity="0.42" filter="url(#soft)"/>
<polygon points="308.0,451.0 354,472 354,542 308.0,521.0" fill="#142C35"/>
<polygon points="400.0,451.0 354,472 354,542 400.0,521.0" fill="#265B69"/>
<polygon points="354,430 400.0,451.0 354,472 308.0,451.0" fill="#68D8EB"/>
<rect x="330.0" y="490.0" width="10" height="7" rx="1.5" fill="#FFD77A" opacity="0.92"/>
<rect x="349.0" y="490.0" width="10" height="7" rx="1.5" fill="#8FEAFF" opacity="0.92"/>
<rect x="368.0" y="490.0" width="10" height="7" rx="1.5" fill="#8FEAFF" opacity="0.92"/>
<rect x="323" y="447" width="62" height="8" rx="4" fill="#55DEFF" opacity="0.85"/>
<ellipse cx="469" cy="535.3" rx="57.04" ry="20.16" fill="#02080C" opacity="0.42" filter="url(#soft)"/>
<polygon points="423.0,459.0 469,480 469,550 423.0,529.0" fill="#142C35"/>
<polygon points="515.0,459.0 469,480 469,550 515.0,529.0" fill="#265B69"/>
<polygon points="469,438 515.0,459.0 469,480 423.0,459.0" fill="#68D8EB"/>
<rect x="445.0" y="498.0" width="10" height="7" rx="1.5" fill="#FFD77A" opacity="0.92"/>
<rect x="464.0" y="498.0" width="10" height="7" rx="1.5" fill="#8FEAFF" opacity="0.92"/>
<rect x="483.0" y="498.0" width="10" height="7" rx="1.5" fill="#8FEAFF" opacity="0.92"/>
<rect x="438" y="455" width="62" height="8" rx="4" fill="#55DEFF" opacity="0.85"/>
<ellipse cx="584" cy="543.3" rx="57.04" ry="20.16" fill="#02080C" opacity="0.42" filter="url(#soft)"/>
<polygon points="538.0,467.0 584,488 584,558 538.0,537.0" fill="#142C35"/>
<polygon points="630.0,467.0 584,488 584,558 630.0,537.0" fill="#265B69"/>
<polygon points="584,446 630.0,467.0 584,488 538.0,467.0" fill="#68D8EB"/>
<rect x="560.0" y="506.0" width="10" height="7" rx="1.5" fill="#FFD77A" opacity="0.92"/>
<rect x="579.0" y="506.0" width="10" height="7" rx="1.5" fill="#8FEAFF" opacity="0.92"/>
<rect x="598.0" y="506.0" width="10" height="7" rx="1.5" fill="#8FEAFF" opacity="0.92"/>
<rect x="553" y="463" width="62" height="8" rx="4" fill="#55DEFF" opacity="0.85"/>
<ellipse cx="699" cy="551.3" rx="57.04" ry="20.16" fill="#02080C" opacity="0.42" filter="url(#soft)"/>
<polygon points="653.0,475.0 699,496 699,566 653.0,545.0" fill="#142C35"/>
<polygon points="745.0,475.0 699,496 699,566 745.0,545.0" fill="#265B69"/>
<polygon points="699,454 745.0,475.0 699,496 653.0,475.0" fill="#68D8EB"/>
<rect x="675.0" y="514.0" width="10" height="7" rx="1.5" fill="#FFD77A" opacity="0.92"/>
<rect x="694.0" y="514.0" width="10" height="7" rx="1.5" fill="#8FEAFF" opacity="0.92"/>
<rect x="713.0" y="514.0" width="10" height="7" rx="1.5" fill="#8FEAFF" opacity="0.92"/>
<rect x="668" y="471" width="62" height="8" rx="4" fill="#55DEFF" opacity="0.85"/>
<ellipse cx="378" cy="597.3" rx="57.04" ry="20.16" fill="#02080C" opacity="0.42" filter="url(#soft)"/>
<polygon points="332.0,521.0 378,542 378,612 332.0,591.0" fill="#142C35"/>
<polygon points="424.0,521.0 378,542 378,612 424.0,591.0" fill="#265B69"/>
<polygon points="378,500 424.0,521.0 378,542 332.0,521.0" fill="#68D8EB"/>
<rect x="354.0" y="560.0" width="10" height="7" rx="1.5" fill="#FFD77A" opacity="0.92"/>
<rect x="373.0" y="560.0" width="10" height="7" rx="1.5" fill="#8FEAFF" opacity="0.92"/>
<rect x="392.0" y="560.0" width="10" height="7" rx="1.5" fill="#8FEAFF" opacity="0.92"/>
<rect x="347" y="517" width="62" height="8" rx="4" fill="#55DEFF" opacity="0.85"/>
<ellipse cx="493" cy="605.3" rx="57.04" ry="20.16" fill="#02080C" opacity="0.42" filter="url(#soft)"/>
<polygon points="447.0,529.0 493,550 493,620 447.0,599.0" fill="#142C35"/>
<polygon points="539.0,529.0 493,550 493,620 539.0,599.0" fill="#265B69"/>
<polygon points="493,508 539.0,529.0 493,550 447.0,529.0" fill="#68D8EB"/>
<rect x="469.0" y="568.0" width="10" height="7" rx="1.5" fill="#FFD77A" opacity="0.92"/>
<rect x="488.0" y="568.0" width="10" height="7" rx="1.5" fill="#8FEAFF" opacity="0.92"/>
<rect x="507.0" y="568.0" width="10" height="7" rx="1.5" fill="#8FEAFF" opacity="0.92"/>
<rect x="462" y="525" width="62" height="8" rx="4" fill="#55DEFF" opacity="0.85"/>
<ellipse cx="608" cy="613.3" rx="57.04" ry="20.16" fill="#02080C" opacity="0.42" filter="url(#soft)"/>
<polygon points="562.0,537.0 608,558 608,628 562.0,607.0" fill="#142C35"/>
<polygon points="654.0,537.0 608,558 608,628 654.0,607.0" fill="#265B69"/>
<polygon points="608,516 654.0,537.0 608,558 562.0,537.0" fill="#68D8EB"/>
<rect x="584.0" y="576.0" width="10" height="7" rx="1.5" fill="#FFD77A" opacity="0.92"/>
<rect x="603.0" y="576.0" width="10" height="7" rx="1.5" fill="#8FEAFF" opacity="0.92"/>
<rect x="622.0" y="576.0" width="10" height="7" rx="1.5" fill="#8FEAFF" opacity="0.92"/>
<rect x="577" y="533" width="62" height="8" rx="4" fill="#55DEFF" opacity="0.85"/>
<ellipse cx="723" cy="621.3" rx="57.04" ry="20.16" fill="#02080C" opacity="0.42" filter="url(#soft)"/>
<polygon points="677.0,545.0 723,566 723,636 677.0,615.0" fill="#142C35"/>
<polygon points="769.0,545.0 723,566 723,636 769.0,615.0" fill="#265B69"/>
<polygon points="723,524 769.0,545.0 723,566 677.0,545.0" fill="#68D8EB"/>
<rect x="699.0" y="584.0" width="10" height="7" rx="1.5" fill="#FFD77A" opacity="0.92"/>
<rect x="718.0" y="584.0" width="10" height="7" rx="1.5" fill="#8FEAFF" opacity="0.92"/>
<rect x="737.0" y="584.0" width="10" height="7" rx="1.5" fill="#8FEAFF" opacity="0.92"/>
<rect x="692" y="541" width="62" height="8" rx="4" fill="#55DEFF" opacity="0.85"/>
<ellipse cx="690" cy="602.5" rx="83.7" ry="24.0" fill="#02080C" opacity="0.42" filter="url(#soft)"/>
<polygon points="622.5,495.0 690,520 690,620 622.5,595.0" fill="#142C35"/>
<polygon points="757.5,495.0 690,520 690,620 757.5,595.0" fill="#2C5964"/>
<polygon points="690,470 757.5,495.0 690,520 622.5,495.0" fill="#7CE8CF"/>
<rect x="656.5" y="538.0" width="10" height="7" rx="1.5" fill="#FFD77A" opacity="0.92"/>
<rect x="675.5" y="538.0" width="10" height="7" rx="1.5" fill="#8FEAFF" opacity="0.92"/>
<rect x="694.5" y="538.0" width="10" height="7" rx="1.5" fill="#8FEAFF" opacity="0.92"/>
<rect x="713.5" y="538.0" width="10" height="7" rx="1.5" fill="#8FEAFF" opacity="0.92"/>
<rect x="656.5" y="571.0" width="10" height="7" rx="1.5" fill="#8FEAFF" opacity="0.92"/>
<rect x="675.5" y="571.0" width="10" height="7" rx="1.5" fill="#8FEAFF" opacity="0.92"/>
<rect x="694.5" y="571.0" width="10" height="7" rx="1.5" fill="#8FEAFF" opacity="0.92"/>
<rect x="713.5" y="571.0" width="10" height="7" rx="1.5" fill="#FFD77A" opacity="0.92"/>
<ellipse cx="512" cy="535" rx="235" ry="112" stroke="#55DEFF" stroke-width="4" opacity="0.24" filter="url(#glow)"/>
</svg>
