<svg xmlns="http://www.w3.org/2000/svg" width="1024" height="768" viewBox="0 0 1024 768" fill="none"><defs>
<linearGradient id="lot" x1="250" y1="450" x2="760" y2="700"><stop stop-color="#294a45"/><stop offset="1" stop-color="#122b28"/></linearGradient>
<filter id="soft"><feGaussianBlur stdDeviation="10"/></filter>
<style>.cyan{fill:#77d9eb}.warm{fill:#ffd77a}.off{fill:#32434b}</style>
</defs><ellipse cx="512" cy="648" rx="265" ry="62" fill="#02080b" opacity=".42" filter="url(#soft)"/><polygon points="512,405 790,548 512,690 234,548" fill="#202a2d" opacity=".82" stroke="#b94b61" stroke-opacity=".35"/><path d="M285 558L500 449L742 571" stroke="#10191d" stroke-width="34" stroke-linecap="round"/><path d="M285 558L500 449L742 571" stroke="#34464b" stroke-width="22" stroke-linecap="round" opacity=".88"/><polygon points="267.5,492.0 315,515 315,635 267.5,612.0" fill="#211f23"/><polygon points="362.5,492.0 315,515 315,635 362.5,612.0" fill="#302a30"/><polygon points="267.5,492.0 315,469 362.5,492.0 315,515" fill="#493b40" stroke="#a4edf4" stroke-opacity=".12"/><rect x="278.3" y="526.7" width="10" height="6" rx="1.4" fill="#344852" opacity="0.45"/><rect x="341.7" y="526.7" width="10" height="6" rx="1.4" fill="#344852" opacity="0.36"/><rect x="294.2" y="534.3" width="10" height="6" rx="1.4" fill="#344852" opacity="0.45"/><rect x="325.8" y="534.3" width="10" height="6" rx="1.4" fill="#344852" opacity="0.36"/><rect x="278.3" y="556.7" width="10" height="6" rx="1.4" fill="#344852" opacity="0.45"/><rect x="341.7" y="556.7" width="10" height="6" rx="1.4" fill="#344852" opacity="0.36"/><rect x="294.2" y="564.3" width="10" height="6" rx="1.4" fill="#344852" opacity="0.45"/><rect x="325.8" y="564.3" width="10" height="6" rx="1.4" fill="#344852" opacity="0.36"/><rect x="278.3" y="586.7" width="10" height="6" rx="1.4" fill="#344852" opacity="0.45"/><rect x="341.7" y="586.7" width="10" height="6" rx="1.4" fill="#344852" opacity="0.36"/><rect x="294.2" y="594.3" width="10" height="6" rx="1.4" fill="#344852" opacity="0.45"/><rect x="325.8" y="594.3" width="10" height="6" rx="1.4" fill="#344852" opacity="0.36"/><polygon points="357.5,420.0 410,445 410,600 357.5,575.0" fill="#211f23"/><polygon points="462.5,420.0 410,445 410,600 462.5,575.0" fill="#302a30"/><polygon points="357.5,420.0 410,395 462.5,420.0 410,445" fill="#493b40" stroke="#a4edf4" stroke-opacity=".12"/><rect x="365.6" y="454.2" width="10" height="6" rx="1.4" fill="#344852" opacity="0.45"/><rect x="444.4" y="454.2" width="10" height="6" rx="1.4" fill="#344852" opacity="0.36"/><rect x="378.8" y="460.5" width="10" height="6" rx="1.4" fill="#344852" opacity="0.45"/><rect x="431.2" y="460.5" width="10" height="6" rx="1.4" fill="#344852" opacity="0.36"/><rect x="365.6" y="485.2" width="10" height="6" rx="1.4" fill="#344852" opacity="0.45"/><rect x="444.4" y="485.2" width="10" height="6" rx="1.4" fill="#344852" opacity="0.36"/><rect x="378.8" y="522.5" width="10" height="6" rx="1.4" fill="#344852" opacity="0.45"/><rect x="431.2" y="522.5" width="10" height="6" rx="1.4" fill="#344852" opacity="0.36"/><rect x="365.6" y="547.2" width="10" height="6" rx="1.4" fill="#344852" opacity="0.45"/><rect x="444.4" y="547.2" width="10" height="6" rx="1.4" fill="#344852" opacity="0.36"/><rect x="378.8" y="553.5" width="10" height="6" rx="1.4" fill="#344852" opacity="0.45"/><rect x="431.2" y="553.5" width="10" height="6" rx="1.4" fill="#344852" opacity="0.36"/><rect x="391.9" y="559.8" width="10" height="6" rx="1.4" fill="#344852" opacity="0.45"/><rect x="418.1" y="559.8" width="10" height="6" rx="1.4" fill="#344852" opacity="0.36"/><polygon points="470.0,486.0 520,510 520,635 470.0,611.0" fill="#211f23"/><polygon points="570.0,486.0 520,510 520,635 570.0,611.0" fill="#302a30"/><polygon points="470.0,486.0 520,462 570.0,486.0 520,510" fill="#493b40" stroke="#a4edf4" stroke-opacity=".12"/><rect x="481.7" y="522.2" width="10" height="6" rx="1.4" fill="#344852" opacity="0.45"/><rect x="548.3" y="522.2" width="10" height="6" rx="1.4" fill="#344852" opacity="0.36"/><rect x="498.3" y="530.2" width="10" height="6" rx="1.4" fill="#344852" opacity="0.45"/><rect x="531.7" y="530.2" width="10" height="6" rx="1.4" fill="#344852" opacity="0.36"/><rect x="481.7" y="553.5" width="10" height="6" rx="1.4" fill="#344852" opacity="0.45"/><rect x="548.3" y="553.5" width="10" height="6" rx="1.4" fill="#344852" opacity="0.36"/><rect x="498.3" y="561.5" width="10" height="6" rx="1.4" fill="#344852" opacity="0.45"/><rect x="531.7" y="561.5" width="10" height="6" rx="1.4" fill="#344852" opacity="0.36"/><polygon points="572.5,425.0 625,450 625,600 572.5,575.0" fill="#211f23"/><polygon points="677.5,425.0 625,450 625,600 677.5,575.0" fill="#302a30"/><polygon points="572.5,425.0 625,400 677.5,425.0 625,450" fill="#493b40" stroke="#a4edf4" stroke-opacity=".12"/><rect x="593.8" y="472.0" width="10" height="6" rx="1.4" fill="#344852" opacity="0.45"/><rect x="646.2" y="472.0" width="10" height="6" rx="1.4" fill="#344852" opacity="0.36"/><rect x="606.9" y="478.2" width="10" height="6" rx="1.4" fill="#344852" opacity="0.45"/><rect x="633.1" y="478.2" width="10" height="6" rx="1.4" fill="#344852" opacity="0.36"/><rect x="580.6" y="503.2" width="10" height="6" rx="1.4" fill="#344852" opacity="0.45"/><rect x="659.4" y="503.2" width="10" height="6" rx="1.4" fill="#344852" opacity="0.36"/><rect x="593.8" y="509.5" width="10" height="6" rx="1.4" fill="#344852" opacity="0.45"/><rect x="646.2" y="509.5" width="10" height="6" rx="1.4" fill="#344852" opacity="0.36"/><rect x="606.9" y="515.8" width="10" height="6" rx="1.4" fill="#344852" opacity="0.45"/><rect x="633.1" y="515.8" width="10" height="6" rx="1.4" fill="#344852" opacity="0.36"/><rect x="580.6" y="540.8" width="10" height="6" rx="1.4" fill="#344852" opacity="0.45"/><rect x="659.4" y="540.8" width="10" height="6" rx="1.4" fill="#344852" opacity="0.36"/><rect x="593.8" y="547.0" width="10" height="6" rx="1.4" fill="#344852" opacity="0.45"/><rect x="646.2" y="547.0" width="10" height="6" rx="1.4" fill="#344852" opacity="0.36"/><rect x="606.9" y="553.2" width="10" height="6" rx="1.4" fill="#344852" opacity="0.45"/><rect x="633.1" y="553.2" width="10" height="6" rx="1.4" fill="#344852" opacity="0.36"/><polygon points="667.5,524.0 710,545 710,650 667.5,629.0" fill="#211f23"/><polygon points="752.5,524.0 710,545 710,650 752.5,629.0" fill="#302a30"/><polygon points="667.5,524.0 710,503 752.5,524.0 710,545" fill="#493b40" stroke="#a4edf4" stroke-opacity=".12"/><rect x="676.7" y="563.0" width="10" height="6" rx="1.4" fill="#344852" opacity="0.45"/><rect x="733.3" y="563.0" width="10" height="6" rx="1.4" fill="#344852" opacity="0.36"/><rect x="690.8" y="570.0" width="10" height="6" rx="1.4" fill="#344852" opacity="0.45"/><rect x="719.2" y="570.0" width="10" height="6" rx="1.4" fill="#344852" opacity="0.36"/><rect x="676.7" y="598.0" width="10" height="6" rx="1.4" fill="#344852" opacity="0.45"/><rect x="733.3" y="598.0" width="10" height="6" rx="1.4" fill="#344852" opacity="0.36"/><rect x="690.8" y="605.0" width="10" height="6" rx="1.4" fill="#344852" opacity="0.45"/><rect x="719.2" y="605.0" width="10" height="6" rx="1.4" fill="#344852" opacity="0.36"/><polygon points="349.0,572.0 390,592 390,680 349.0,660.0" fill="#211f23"/><polygon points="431.0,572.0 390,592 390,680 431.0,660.0" fill="#302a30"/><polygon points="349.0,572.0 390,552 431.0,572.0 390,592" fill="#493b40" stroke="#a4edf4" stroke-opacity=".12"/><rect x="371.3" y="611.7" width="10" height="6" rx="1.4" fill="#344852" opacity="0.45"/><rect x="398.7" y="611.7" width="10" height="6" rx="1.4" fill="#344852" opacity="0.36"/><rect x="371.3" y="641.0" width="10" height="6" rx="1.4" fill="#344852" opacity="0.45"/><rect x="398.7" y="641.0" width="10" height="6" rx="1.4" fill="#344852" opacity="0.36"/><polygon points="544.0,572.0 585,592 585,682 544.0,662.0" fill="#211f23"/><polygon points="626.0,572.0 585,592 585,682 626.0,662.0" fill="#302a30"/><polygon points="544.0,572.0 585,552 626.0,572.0 585,592" fill="#493b40" stroke="#a4edf4" stroke-opacity=".12"/><rect x="552.7" y="605.7" width="10" height="6" rx="1.4" fill="#344852" opacity="0.45"/><rect x="607.3" y="605.7" width="10" height="6" rx="1.4" fill="#344852" opacity="0.36"/><rect x="552.7" y="635.7" width="10" height="6" rx="1.4" fill="#344852" opacity="0.45"/><rect x="607.3" y="635.7" width="10" height="6" rx="1.4" fill="#344852" opacity="0.36"/><rect x="566.3" y="642.3" width="10" height="6" rx="1.4" fill="#344852" opacity="0.45"/><rect x="593.7" y="642.3" width="10" height="6" rx="1.4" fill="#344852" opacity="0.36"/><path d="M310 648L500 552L720 660" stroke="#6a5158" stroke-width="5" opacity=".45"/><circle cx="512" cy="505" r="10" fill="#ff5d73"/><circle cx="512" cy="505" r="38" fill="#ff5d73" opacity=".08"/><path d="M480 505h64" stroke="#ff5d73" stroke-width="4" stroke-dasharray="8 7"/></svg>