<svg xmlns="http://www.w3.org/2000/svg" width="1024" height="768" viewBox="0 0 1024 768" fill="none">
  <defs>
    <linearGradient id="ground" x1="240" y1="330" x2="760" y2="690" gradientUnits="userSpaceOnUse">
      <stop stop-color="#244C48"/>
      <stop offset="1" stop-color="#112825"/>
    </linearGradient>
    <linearGradient id="road" x1="300" y1="390" x2="720" y2="630" gradientUnits="userSpaceOnUse">
      <stop stop-color="#3A4B50"/>
      <stop offset="1" stop-color="#1B292E"/>
    </linearGradient>
    <linearGradient id="cyanFace" x1="0" y1="0" x2="1" y2="1">
      <stop stop-color="#2A7892"/>
      <stop offset="1" stop-color="#123845"/>
    </linearGradient>
    <filter id="glow" x="-80%" y="-80%" width="260%" height="260%">
      <feGaussianBlur stdDeviation="9" result="blur"/>
      <feMerge><feMergeNode in="blur"/><feMergeNode in="SourceGraphic"/></feMerge>
    </filter>
    <filter id="soft" x="-40%" y="-40%" width="180%" height="180%">
      <feGaussianBlur stdDeviation="16"/>
    </filter>
  </defs>
<ellipse cx="512" cy="650" rx="330" ry="78" fill="#02080B" opacity="0.52" filter="url(#soft)"/>
<polygon points="512,357 867,535 512,713 157,535" fill="url(#ground)" stroke="#3E8179" opacity="0.98"/>
<path d="M230 545L505 410L795 557" stroke="#0A1216" stroke-width="48" stroke-linecap="round" opacity="0.88"/>
<path d="M230 545L505 410L795 557" stroke="url(#road)" stroke-width="34" stroke-linecap="round"/>
<path d="M355 625L512 535L675 625" stroke="#26383D" stroke-width="24" stroke-linecap="round"/>
<ellipse cx="300" cy="566.2" rx="65.1" ry="23.04" fill="#02080C" opacity="0.42" filter="url(#soft)"/>
<polygon points="247.5,454.0 300,478 300,583 247.5,559.0" fill="#142C35"/>
<polygon points="352.5,454.0 300,478 300,583 352.5,559.0" fill="#493B45"/>
<polygon points="300,430 352.5,454.0 300,478 247.5,454.0" fill="#C8778C"/>
<rect x="276.0" y="496.0" width="10" height="7" rx="1.5" fill="#FFD77A" opacity="0.92"/>
<rect x="295.0" y="496.0" width="10" height="7" rx="1.5" fill="#8FEAFF" opacity="0.92"/>
<rect x="314.0" y="496.0" width="10" height="7" rx="1.5" fill="#8FEAFF" opacity="0.92"/>
<rect x="276.0" y="519.6666666666666" width="10" height="7" rx="1.5" fill="#8FEAFF" opacity="0.92"/>
<rect x="295.0" y="519.6666666666666" width="10" height="7" rx="1.5" fill="#8FEAFF" opacity="0.92"/>
<rect x="314.0" y="519.6666666666666" width="10" height="7" rx="1.5" fill="#8FEAFF" opacity="0.92"/>
<rect x="276.0" y="543.3333333333334" width="10" height="7" rx="1.5" fill="#8FEAFF" opacity="0.92"/>
<rect x="295.0" y="543.3333333333334" width="10" height="7" rx="1.5" fill="#8FEAFF" opacity="0.92"/>
<rect x="314.0" y="543.3333333333334" width="10" height="7" rx="1.5" fill="#FFD77A" opacity="0.92"/>
<ellipse cx="420" cy="501.2" rx="65.1" ry="23.04" fill="#02080C" opacity="0.42" filter="url(#soft)"/>
<polygon points="367.5,359.0 420,383 420,518 367.5,494.0" fill="#142C35"/>
<polygon points="472.5,359.0 420,383 420,518 472.5,494.0" fill="#59414B"/>
<polygon points="420,335 472.5,359.0 420,383 367.5,359.0" fill="#D8899D"/>
<rect x="396.0" y="401.0" width="10" height="7" rx="1.5" fill="#FFD77A" opacity="0.92"/>
<rect x="415.0" y="401.0" width="10" height="7" rx="1.5" fill="#8FEAFF" opacity="0.92"/>
<rect x="434.0" y="401.0" width="10" height="7" rx="1.5" fill="#8FEAFF" opacity="0.92"/>
<rect x="396.0" y="434.6666666666667" width="10" height="7" rx="1.5" fill="#8FEAFF" opacity="0.92"/>
<rect x="415.0" y="434.6666666666667" width="10" height="7" rx="1.5" fill="#8FEAFF" opacity="0.92"/>
<rect x="434.0" y="434.6666666666667" width="10" height="7" rx="1.5" fill="#8FEAFF" opacity="0.92"/>
<rect x="396.0" y="468.3333333333333" width="10" height="7" rx="1.5" fill="#8FEAFF" opacity="0.92"/>
<rect x="415.0" y="468.3333333333333" width="10" height="7" rx="1.5" fill="#8FEAFF" opacity="0.92"/>
<rect x="434.0" y="468.3333333333333" width="10" height="7" rx="1.5" fill="#FFD77A" opacity="0.92"/>
<ellipse cx="535" cy="556.2" rx="68.2" ry="23.04" fill="#02080C" opacity="0.42" filter="url(#soft)"/>
<polygon points="480.0,429.0 535,453 535,573 480.0,549.0" fill="#142C35"/>
<polygon points="590.0,429.0 535,453 535,573 590.0,549.0" fill="#4D3C45"/>
<polygon points="535,405 590.0,429.0 535,453 480.0,429.0" fill="#C6788E"/>
<rect x="511.0" y="471.0" width="10" height="7" rx="1.5" fill="#FFD77A" opacity="0.92"/>
<rect x="530.0" y="471.0" width="10" height="7" rx="1.5" fill="#8FEAFF" opacity="0.92"/>
<rect x="549.0" y="471.0" width="10" height="7" rx="1.5" fill="#8FEAFF" opacity="0.92"/>
<rect x="511.0" y="499.6666666666667" width="10" height="7" rx="1.5" fill="#8FEAFF" opacity="0.92"/>
<rect x="530.0" y="499.6666666666667" width="10" height="7" rx="1.5" fill="#8FEAFF" opacity="0.92"/>
<rect x="549.0" y="499.6666666666667" width="10" height="7" rx="1.5" fill="#8FEAFF" opacity="0.92"/>
<rect x="511.0" y="528.3333333333334" width="10" height="7" rx="1.5" fill="#8FEAFF" opacity="0.92"/>
<rect x="530.0" y="528.3333333333334" width="10" height="7" rx="1.5" fill="#8FEAFF" opacity="0.92"/>
<rect x="549.0" y="528.3333333333334" width="10" height="7" rx="1.5" fill="#FFD77A" opacity="0.92"/>
<ellipse cx="650" cy="499.9" rx="62.0" ry="22.08" fill="#02080C" opacity="0.42" filter="url(#soft)"/>
<polygon points="600.0,363.0 650,386 650,516 600.0,493.0" fill="#142C35"/>
<polygon points="700.0,363.0 650,386 650,516 700.0,493.0" fill="#584149"/>
<polygon points="650,340 700.0,363.0 650,386 600.0,363.0" fill="#E0949F"/>
<rect x="626.0" y="404.0" width="10" height="7" rx="1.5" fill="#FFD77A" opacity="0.92"/>
<rect x="645.0" y="404.0" width="10" height="7" rx="1.5" fill="#8FEAFF" opacity="0.92"/>
<rect x="664.0" y="404.0" width="10" height="7" rx="1.5" fill="#8FEAFF" opacity="0.92"/>
<rect x="626.0" y="436.0" width="10" height="7" rx="1.5" fill="#8FEAFF" opacity="0.92"/>
<rect x="645.0" y="436.0" width="10" height="7" rx="1.5" fill="#8FEAFF" opacity="0.92"/>
<rect x="664.0" y="436.0" width="10" height="7" rx="1.5" fill="#8FEAFF" opacity="0.92"/>
<rect x="626.0" y="468.0" width="10" height="7" rx="1.5" fill="#8FEAFF" opacity="0.92"/>
<rect x="645.0" y="468.0" width="10" height="7" rx="1.5" fill="#8FEAFF" opacity="0.92"/>
<rect x="664.0" y="468.0" width="10" height="7" rx="1.5" fill="#FFD77A" opacity="0.92"/>
<ellipse cx="735" cy="609.25" rx="65.1" ry="21.599999999999998" fill="#02080C" opacity="0.42" filter="url(#soft)"/>
<polygon points="682.5,502.5 735,525 735,625 682.5,602.5" fill="#142C35"/>
<polygon points="787.5,502.5 735,525 735,625 787.5,602.5" fill="#493941"/>
<polygon points="735,480 787.5,502.5 735,525 682.5,502.5" fill="#C77A8B"/>
<rect x="711.0" y="543.0" width="10" height="7" rx="1.5" fill="#FFD77A" opacity="0.92"/>
<rect x="730.0" y="543.0" width="10" height="7" rx="1.5" fill="#8FEAFF" opacity="0.92"/>
<rect x="749.0" y="543.0" width="10" height="7" rx="1.5" fill="#8FEAFF" opacity="0.92"/>
<rect x="711.0" y="576.0" width="10" height="7" rx="1.5" fill="#8FEAFF" opacity="0.92"/>
<rect x="730.0" y="576.0" width="10" height="7" rx="1.5" fill="#8FEAFF" opacity="0.92"/>
<rect x="749.0" y="576.0" width="10" height="7" rx="1.5" fill="#8FEAFF" opacity="0.92"/>
<ellipse cx="390" cy="648.6" rx="62.0" ry="21.119999999999997" fill="#02080C" opacity="0.42" filter="url(#soft)"/>
<polygon points="340.0,550.0 390,572 390,664 340.0,642.0" fill="#142C35"/>
<polygon points="440.0,550.0 390,572 390,664 440.0,642.0" fill="#503D43"/>
<polygon points="390,528 440.0,550.0 390,572 340.0,550.0" fill="#DB8B93"/>
<rect x="366.0" y="590.0" width="10" height="7" rx="1.5" fill="#FFD77A" opacity="0.92"/>
<rect x="385.0" y="590.0" width="10" height="7" rx="1.5" fill="#8FEAFF" opacity="0.92"/>
<rect x="404.0" y="590.0" width="10" height="7" rx="1.5" fill="#8FEAFF" opacity="0.92"/>
<rect x="366.0" y="619.0" width="10" height="7" rx="1.5" fill="#8FEAFF" opacity="0.92"/>
<rect x="385.0" y="619.0" width="10" height="7" rx="1.5" fill="#8FEAFF" opacity="0.92"/>
<rect x="404.0" y="619.0" width="10" height="7" rx="1.5" fill="#8FEAFF" opacity="0.92"/>
<path d="M275 585L425 510L560 575L720 495" stroke="#6D4D45" stroke-width="14" stroke-linecap="round" opacity="0.85"/>
<g transform="translate(520 610) scale(0.7)">
  <ellipse cx="0" cy="8" rx="17" ry="8" fill="#02090A" opacity="0.35"/>
  <rect x="-3" y="-12" width="6" height="25" rx="2" fill="#59402F"/>
  <circle cx="0" cy="-22" r="17" fill="#397B58"/>
  <circle cx="-10" cy="-17" r="11" fill="#4A9369"/>
  <circle cx="10" cy="-18" r="10" fill="#2E684B"/>
</g>
<g transform="translate(610 575) scale(0.65)">
  <ellipse cx="0" cy="8" rx="17" ry="8" fill="#02090A" opacity="0.35"/>
  <rect x="-3" y="-12" width="6" height="25" rx="2" fill="#59402F"/>
  <circle cx="0" cy="-22" r="17" fill="#397B58"/>
  <circle cx="-10" cy="-17" r="11" fill="#4A9369"/>
  <circle cx="10" cy="-18" r="10" fill="#2E684B"/>
</g>
<g transform="translate(260 575)">
  <rect x="-2" y="-27" width="4" height="30" rx="2" fill="#6E8890"/>
  <circle cx="0" cy="-30" r="5" fill="#FFDD82" opacity="0.95" filter="url(#glow)"/>
</g>
<g transform="translate(410 655)">
  <rect x="-2" y="-27" width="4" height="30" rx="2" fill="#6E8890"/>
  <circle cx="0" cy="-30" r="5" fill="#FFDD82" opacity="0.95" filter="url(#glow)"/>
</g>
<g transform="translate(610 650)">
  <rect x="-2" y="-27" width="4" height="30" rx="2" fill="#6E8890"/>
  <circle cx="0" cy="-30" r="5" fill="#FFDD82" opacity="0.95" filter="url(#glow)"/>
</g>
<g transform="translate(760 580)">
  <rect x="-2" y="-27" width="4" height="30" rx="2" fill="#6E8890"/>
  <circle cx="0" cy="-30" r="5" fill="#FFDD82" opacity="0.95" filter="url(#glow)"/>
</g>
<path d="M250 545L505 420L782 557" stroke="#FFB56C" stroke-width="5" opacity="0.45" filter="url(#glow)"/>
</svg>
