<svg xmlns="http://www.w3.org/2000/svg" width="1024" height="768" viewBox="0 0 1024 768" fill="none"><defs>
<linearGradient id="lot" x1="250" y1="450" x2="760" y2="700"><stop stop-color="#294a45"/><stop offset="1" stop-color="#122b28"/></linearGradient>
<filter id="soft"><feGaussianBlur stdDeviation="10"/></filter>
<style>.cyan{fill:#77d9eb}.warm{fill:#ffd77a}.off{fill:#32434b}</style>
</defs><ellipse cx="512" cy="648" rx="265" ry="62" fill="#02080b" opacity=".42" filter="url(#soft)"/><polygon points="512,405 790,548 512,690 234,548" fill="url(#lot)" opacity=".82" stroke="#4b8076" stroke-opacity=".35"/><path d="M285 558L500 449L742 571" stroke="#10191d" stroke-width="34" stroke-linecap="round"/><path d="M285 558L500 449L742 571" stroke="#34464b" stroke-width="22" stroke-linecap="round" opacity=".88"/><polygon points="297.5,379.0 350,405 350,590 297.5,564.0" fill="#16343e"/><polygon points="402.5,379.0 350,405 350,590 402.5,564.0" fill="#245467"/><polygon points="297.5,379.0 350,353 402.5,379.0 350,405" fill="#55a3b9" stroke="#a4edf4" stroke-opacity=".12"/><rect x="305.6" y="419.5" width="10" height="6" rx="1.4" fill="#79dced" opacity="0.92"/><rect x="384.4" y="419.5" width="10" height="6" rx="1.4" fill="#79dced" opacity="0.76"/><rect x="318.8" y="426.0" width="10" height="6" rx="1.4" fill="#ffd77a" opacity="0.92"/><rect x="371.2" y="426.0" width="10" height="6" rx="1.4" fill="#ffd77a" opacity="0.76"/><rect x="318.8" y="463.0" width="10" height="6" rx="1.4" fill="#ffd77a" opacity="0.92"/><rect x="371.2" y="463.0" width="10" height="6" rx="1.4" fill="#ffd77a" opacity="0.76"/><rect x="331.9" y="469.5" width="10" height="6" rx="1.4" fill="#ffd77a" opacity="0.92"/><rect x="358.1" y="469.5" width="10" height="6" rx="1.4" fill="#ffd77a" opacity="0.76"/><rect x="305.6" y="493.5" width="10" height="6" rx="1.4" fill="#79dced" opacity="0.92"/><rect x="384.4" y="493.5" width="10" height="6" rx="1.4" fill="#79dced" opacity="0.76"/><rect x="331.9" y="506.5" width="10" height="6" rx="1.4" fill="#79dced" opacity="0.92"/><rect x="358.1" y="506.5" width="10" height="6" rx="1.4" fill="#79dced" opacity="0.76"/><rect x="305.6" y="530.5" width="10" height="6" rx="1.4" fill="#79dced" opacity="0.92"/><rect x="384.4" y="530.5" width="10" height="6" rx="1.4" fill="#79dced" opacity="0.76"/><rect x="318.8" y="537.0" width="10" height="6" rx="1.4" fill="#79dced" opacity="0.92"/><rect x="371.2" y="537.0" width="10" height="6" rx="1.4" fill="#79dced" opacity="0.76"/><rect x="331.9" y="543.5" width="10" height="6" rx="1.4" fill="#79dced" opacity="0.92"/><rect x="358.1" y="543.5" width="10" height="6" rx="1.4" fill="#79dced" opacity="0.76"/><polygon points="410.0,269.0 470,298 470,548 410.0,519.0" fill="#16343e"/><polygon points="530.0,269.0 470,298 470,548 530.0,519.0" fill="#245467"/><polygon points="410.0,269.0 470,240 530.0,269.0 470,298" fill="#55a3b9" stroke="#a4edf4" stroke-opacity=".12"/><rect x="420.0" y="309.0" width="10" height="6" rx="1.4" fill="#79dced" opacity="0.92"/><rect x="510.0" y="309.0" width="10" height="6" rx="1.4" fill="#79dced" opacity="0.76"/><rect x="450.0" y="323.5" width="10" height="6" rx="1.4" fill="#79dced" opacity="0.92"/><rect x="480.0" y="323.5" width="10" height="6" rx="1.4" fill="#79dced" opacity="0.76"/><rect x="420.0" y="344.7" width="10" height="6" rx="1.4" fill="#ffd77a" opacity="0.92"/><rect x="510.0" y="344.7" width="10" height="6" rx="1.4" fill="#ffd77a" opacity="0.76"/><rect x="435.0" y="351.9" width="10" height="6" rx="1.4" fill="#79dced" opacity="0.92"/><rect x="495.0" y="351.9" width="10" height="6" rx="1.4" fill="#79dced" opacity="0.76"/><rect x="420.0" y="380.4" width="10" height="6" rx="1.4" fill="#ffd77a" opacity="0.92"/><rect x="510.0" y="380.4" width="10" height="6" rx="1.4" fill="#ffd77a" opacity="0.76"/><rect x="435.0" y="387.6" width="10" height="6" rx="1.4" fill="#79dced" opacity="0.92"/><rect x="495.0" y="387.6" width="10" height="6" rx="1.4" fill="#79dced" opacity="0.76"/><rect x="420.0" y="416.1" width="10" height="6" rx="1.4" fill="#79dced" opacity="0.92"/><rect x="510.0" y="416.1" width="10" height="6" rx="1.4" fill="#79dced" opacity="0.76"/><rect x="450.0" y="430.6" width="10" height="6" rx="1.4" fill="#79dced" opacity="0.92"/><rect x="480.0" y="430.6" width="10" height="6" rx="1.4" fill="#79dced" opacity="0.76"/><rect x="420.0" y="451.8" width="10" height="6" rx="1.4" fill="#ffd77a" opacity="0.92"/><rect x="510.0" y="451.8" width="10" height="6" rx="1.4" fill="#ffd77a" opacity="0.76"/><rect x="435.0" y="459.1" width="10" height="6" rx="1.4" fill="#ffd77a" opacity="0.92"/><rect x="495.0" y="459.1" width="10" height="6" rx="1.4" fill="#ffd77a" opacity="0.76"/><rect x="450.0" y="466.3" width="10" height="6" rx="1.4" fill="#ffd77a" opacity="0.92"/><rect x="480.0" y="466.3" width="10" height="6" rx="1.4" fill="#ffd77a" opacity="0.76"/><rect x="420.0" y="487.5" width="10" height="6" rx="1.4" fill="#79dced" opacity="0.92"/><rect x="510.0" y="487.5" width="10" height="6" rx="1.4" fill="#79dced" opacity="0.76"/><rect x="435.0" y="494.8" width="10" height="6" rx="1.4" fill="#79dced" opacity="0.92"/><rect x="495.0" y="494.8" width="10" height="6" rx="1.4" fill="#79dced" opacity="0.76"/><rect x="450.0" y="502.0" width="10" height="6" rx="1.4" fill="#79dced" opacity="0.92"/><rect x="480.0" y="502.0" width="10" height="6" rx="1.4" fill="#79dced" opacity="0.76"/><polygon points="557.5,374.0 610,400 610,590 557.5,564.0" fill="#16343e"/><polygon points="662.5,374.0 610,400 610,590 662.5,564.0" fill="#245467"/><polygon points="557.5,374.0 610,348 662.5,374.0 610,400" fill="#55a3b9" stroke="#a4edf4" stroke-opacity=".12"/><rect x="565.6" y="409.2" width="10" height="6" rx="1.4" fill="#79dced" opacity="0.92"/><rect x="644.4" y="409.2" width="10" height="6" rx="1.4" fill="#79dced" opacity="0.76"/><rect x="578.8" y="415.7" width="10" height="6" rx="1.4" fill="#ffd77a" opacity="0.92"/><rect x="631.2" y="415.7" width="10" height="6" rx="1.4" fill="#ffd77a" opacity="0.76"/><rect x="591.9" y="422.2" width="10" height="6" rx="1.4" fill="#79dced" opacity="0.92"/><rect x="618.1" y="422.2" width="10" height="6" rx="1.4" fill="#79dced" opacity="0.76"/><rect x="565.6" y="440.8" width="10" height="6" rx="1.4" fill="#79dced" opacity="0.92"/><rect x="644.4" y="440.8" width="10" height="6" rx="1.4" fill="#79dced" opacity="0.76"/><rect x="591.9" y="453.8" width="10" height="6" rx="1.4" fill="#79dced" opacity="0.92"/><rect x="618.1" y="453.8" width="10" height="6" rx="1.4" fill="#79dced" opacity="0.76"/><rect x="565.6" y="472.5" width="10" height="6" rx="1.4" fill="#ffd77a" opacity="0.92"/><rect x="644.4" y="472.5" width="10" height="6" rx="1.4" fill="#ffd77a" opacity="0.76"/><rect x="578.8" y="479.0" width="10" height="6" rx="1.4" fill="#ffd77a" opacity="0.92"/><rect x="631.2" y="479.0" width="10" height="6" rx="1.4" fill="#ffd77a" opacity="0.76"/><rect x="565.6" y="504.2" width="10" height="6" rx="1.4" fill="#79dced" opacity="0.92"/><rect x="644.4" y="504.2" width="10" height="6" rx="1.4" fill="#79dced" opacity="0.76"/><rect x="578.8" y="510.7" width="10" height="6" rx="1.4" fill="#79dced" opacity="0.92"/><rect x="631.2" y="510.7" width="10" height="6" rx="1.4" fill="#79dced" opacity="0.76"/><rect x="591.9" y="517.2" width="10" height="6" rx="1.4" fill="#79dced" opacity="0.92"/><rect x="618.1" y="517.2" width="10" height="6" rx="1.4" fill="#79dced" opacity="0.76"/><rect x="578.8" y="542.3" width="10" height="6" rx="1.4" fill="#ffd77a" opacity="0.92"/><rect x="631.2" y="542.3" width="10" height="6" rx="1.4" fill="#ffd77a" opacity="0.76"/><polygon points="355.0,517.5 400,540 400,650 355.0,627.5" fill="#16343e"/><polygon points="445.0,517.5 400,540 400,650 445.0,627.5" fill="#245467"/><polygon points="355.0,517.5 400,495 445.0,517.5 400,540" fill="#55a3b9" stroke="#a4edf4" stroke-opacity=".12"/><rect x="365.0" y="558.7" width="10" height="6" rx="1.4" fill="#79dced" opacity="0.92"/><rect x="425.0" y="558.7" width="10" height="6" rx="1.4" fill="#79dced" opacity="0.76"/><rect x="380.0" y="602.8" width="10" height="6" rx="1.4" fill="#ffd77a" opacity="0.92"/><rect x="410.0" y="602.8" width="10" height="6" rx="1.4" fill="#ffd77a" opacity="0.76"/><polygon points="497.5,476.0 545,500 545,635 497.5,611.0" fill="#16343e"/><polygon points="592.5,476.0 545,500 545,635 592.5,611.0" fill="#245467"/><polygon points="497.5,476.0 545,452 592.5,476.0 545,500" fill="#55a3b9" stroke="#a4edf4" stroke-opacity=".12"/><rect x="508.3" y="514.8" width="10" height="6" rx="1.4" fill="#79dced" opacity="0.92"/><rect x="571.7" y="514.8" width="10" height="6" rx="1.4" fill="#79dced" opacity="0.76"/><rect x="524.2" y="522.8" width="10" height="6" rx="1.4" fill="#79dced" opacity="0.92"/><rect x="555.8" y="522.8" width="10" height="6" rx="1.4" fill="#79dced" opacity="0.76"/><rect x="508.3" y="548.5" width="10" height="6" rx="1.4" fill="#ffd77a" opacity="0.92"/><rect x="571.7" y="548.5" width="10" height="6" rx="1.4" fill="#ffd77a" opacity="0.76"/><rect x="508.3" y="582.2" width="10" height="6" rx="1.4" fill="#ffd77a" opacity="0.92"/><rect x="571.7" y="582.2" width="10" height="6" rx="1.4" fill="#ffd77a" opacity="0.76"/><polygon points="639.0,519.0 680,540 680,645 639.0,624.0" fill="#16343e"/><polygon points="721.0,519.0 680,540 680,645 721.0,624.0" fill="#245467"/><polygon points="639.0,519.0 680,498 721.0,519.0 680,540" fill="#55a3b9" stroke="#a4edf4" stroke-opacity=".12"/><rect x="661.3" y="565.0" width="10" height="6" rx="1.4" fill="#79dced" opacity="0.92"/><rect x="688.7" y="565.0" width="10" height="6" rx="1.4" fill="#79dced" opacity="0.76"/><rect x="647.7" y="593.0" width="10" height="6" rx="1.4" fill="#79dced" opacity="0.92"/><rect x="702.3" y="593.0" width="10" height="6" rx="1.4" fill="#79dced" opacity="0.76"/><rect x="661.3" y="600.0" width="10" height="6" rx="1.4" fill="#79dced" opacity="0.92"/><rect x="688.7" y="600.0" width="10" height="6" rx="1.4" fill="#79dced" opacity="0.76"/><rect x="298.4" y="618.0" width="3.2" height="12.8" fill="#443326"/><circle cx="300" cy="614.0" r="8.8" fill="#3f7c5a"/><circle cx="296.0" cy="610.0" r="5.6000000000000005" fill="#56a073" opacity=".8"/><rect x="733.2" y="611.5" width="3.6" height="14.4" fill="#443326"/><circle cx="735" cy="607.0" r="9.9" fill="#3f7c5a"/><circle cx="730.5" cy="602.5" r="6.3" fill="#56a073" opacity=".8"/><rect x="583.7" y="665.25" width="2.6" height="10.4" fill="#443326"/><circle cx="585" cy="662.0" r="7.15" fill="#3f7c5a"/><circle cx="581.75" cy="658.75" r="4.55" fill="#56a073" opacity=".8"/></svg>