<svg xmlns="http://www.w3.org/2000/svg" width="1024" height="768" viewBox="0 0 1024 768" fill="none"><defs><filter id="blur12" x="-50%" y="-50%" width="200%" height="200%"><feGaussianBlur stdDeviation="12"/></filter><filter id="glow" x="-90%" y="-90%" width="280%" height="280%"><feGaussianBlur stdDeviation="6" result="b"/><feMerge><feMergeNode in="b"/><feMergeNode in="SourceGraphic"/></feMerge></filter></defs><ellipse cx="512" cy="656" rx="275" ry="54" fill="#02070A" opacity=".5" filter="url(#blur12)"/><polygon points="512,400 812,550 512,700 212,550" fill="#16332F" stroke="#56D9EE" stroke-opacity=".18" stroke-width="2"/><polygon points="512,438 744,554 512,670 280,554" fill="#102522" stroke="#4D827A" stroke-opacity=".25" stroke-width="2"/><polygon points="432,490 512,532 512,622 432,580" fill="#183543"/><polygon points="592,490 512,532 512,622 592,580" fill="#2C6675"/><polygon points="432,490 512,448 592,490 512,532" fill="#76D7E8"/><path d="M512 532 V604" stroke="#31434A" stroke-width="6" opacity=".85"/><path d="M272 560 L330 250 L388 560 M288 470 H372 M298 390 H362 M308 320 H352" stroke="#BBD2D7" stroke-width="10" stroke-linecap="round"/><path d="M272 560 H388" stroke="#789096" stroke-width="10"/><path d="M296 350 L364 350 M302 420 L358 420" stroke="#31434A" stroke-width="4" opacity=".7"/><path d="M637 560 L695 250 L753 560 M653 470 H737 M663 390 H727 M673 320 H717" stroke="#BBD2D7" stroke-width="10" stroke-linecap="round"/><path d="M637 560 H753" stroke="#789096" stroke-width="10"/><path d="M661 350 L729 350 M667 420 L723 420" stroke="#31434A" stroke-width="4" opacity=".7"/><path d="M270 330 H755 M292 402 H732" stroke="#A9C4CA" stroke-width="8" stroke-linecap="round"/><g fill="#D6EEF2"><circle cx="310" cy="330" r="8"/><circle cx="390" cy="330" r="8"/><circle cx="470" cy="330" r="8"/><circle cx="550" cy="330" r="8"/><circle cx="630" cy="330" r="8"/><circle cx="710" cy="330" r="8"/></g><g stroke="#7B949A" stroke-width="5"><path d="M310 338 V402"/><path d="M390 338 V402"/><path d="M470 338 V402"/><path d="M550 338 V402"/><path d="M630 338 V402"/><path d="M710 338 V402"/></g><g><polygon points="316,550 350,533 384,550 350,567" fill="#6C858C"/><polygon points="316,550 350,567 350,605 316,588" fill="#384A50"/><polygon points="384,550 350,567 350,605 384,588" fill="#526971"/><circle cx="350" cy="568" r="12" fill="#4A4844"/><path d="M326 573 H374" stroke="#D0E2E4" stroke-width="4"/><polygon points="404,595 438,578 472,595 438,612" fill="#6C858C"/><polygon points="404,595 438,612 438,650 404,633" fill="#384A50"/><polygon points="472,595 438,612 438,650 472,633" fill="#526971"/><circle cx="438" cy="613" r="12" fill="#4A4844"/><path d="M414 618 H462" stroke="#D0E2E4" stroke-width="4"/><polygon points="551,595 585,578 619,595 585,612" fill="#6C858C"/><polygon points="551,595 585,612 585,650 551,633" fill="#384A50"/><polygon points="619,595 585,612 585,650 619,633" fill="#526971"/><circle cx="585" cy="613" r="12" fill="#4A4844"/><path d="M561 618 H609" stroke="#D0E2E4" stroke-width="4"/><polygon points="641,550 675,533 709,550 675,567" fill="#6C858C"/><polygon points="641,550 675,567 675,605 641,588" fill="#384A50"/><polygon points="709,550 675,567 675,605 709,588" fill="#526971"/><circle cx="675" cy="568" r="12" fill="#4A4844"/><path d="M651 573 H699" stroke="#D0E2E4" stroke-width="4"/></g><g fill="#43606A"><rect x="400" y="535" width="20" height="48" rx="5"/><rect x="460" y="535" width="20" height="48" rx="5"/><rect x="540" y="535" width="20" height="48" rx="5"/><rect x="600" y="535" width="20" height="48" rx="5"/></g><g fill="#BBD7DC"><circle cx="410" cy="535" r="7"/><circle cx="470" cy="535" r="7"/><circle cx="550" cy="535" r="7"/><circle cx="610" cy="535" r="7"/></g><rect width="1024" height="768" fill="#071015" opacity=".23"/><circle cx="512" cy="560" r="20" fill="#4A383A"/><circle cx="742" cy="470" r="9" fill="#FF5D68" filter="url(#glow)"/><path d="M350 575 H675" stroke="#FF5D68" stroke-width="4" stroke-dasharray="12 10" opacity=".65"/></svg>