<svg xmlns="http://www.w3.org/2000/svg" width="1024" height="768" viewBox="0 0 1024 768" fill="none"><defs>
<linearGradient id="lot" x1="250" y1="450" x2="760" y2="700"><stop stop-color="#294a45"/><stop offset="1" stop-color="#122b28"/></linearGradient>
<filter id="soft"><feGaussianBlur stdDeviation="10"/></filter>
<style>.cyan{fill:#77d9eb}.warm{fill:#ffd77a}.off{fill:#32434b}</style>
</defs><ellipse cx="512" cy="648" rx="265" ry="62" fill="#02080b" opacity=".42" filter="url(#soft)"/><polygon points="512,405 790,548 512,690 234,548" fill="url(#lot)" opacity=".82" stroke="#4b8076" stroke-opacity=".35"/><path d="M285 558L500 449L742 571" stroke="#10191d" stroke-width="34" stroke-linecap="round"/><path d="M285 558L500 449L742 571" stroke="#34464b" stroke-width="22" stroke-linecap="round" opacity=".88"/><polygon points="297.5,363.0 350,390 350,620 297.5,593.0" fill="#142f45"/><polygon points="402.5,363.0 350,390 350,620 402.5,593.0" fill="#23536f"/><polygon points="297.5,363.0 350,336 402.5,363.0 350,390" fill="#67c9e6" stroke="#a4edf4" stroke-opacity=".12"/><rect x="305.6" y="399.6" width="10" height="6" rx="1.4" fill="#ffd77a" opacity="0.92"/><rect x="384.4" y="399.6" width="10" height="6" rx="1.4" fill="#ffd77a" opacity="0.76"/><rect x="318.8" y="406.4" width="10" height="6" rx="1.4" fill="#79dced" opacity="0.92"/><rect x="371.2" y="406.4" width="10" height="6" rx="1.4" fill="#79dced" opacity="0.76"/><rect x="331.9" y="413.1" width="10" height="6" rx="1.4" fill="#ffd77a" opacity="0.92"/><rect x="358.1" y="413.1" width="10" height="6" rx="1.4" fill="#ffd77a" opacity="0.76"/><rect x="305.6" y="432.5" width="10" height="6" rx="1.4" fill="#79dced" opacity="0.92"/><rect x="384.4" y="432.5" width="10" height="6" rx="1.4" fill="#79dced" opacity="0.76"/><rect x="331.9" y="446.0" width="10" height="6" rx="1.4" fill="#79dced" opacity="0.92"/><rect x="358.1" y="446.0" width="10" height="6" rx="1.4" fill="#79dced" opacity="0.76"/><rect x="318.8" y="472.1" width="10" height="6" rx="1.4" fill="#ffd77a" opacity="0.92"/><rect x="371.2" y="472.1" width="10" height="6" rx="1.4" fill="#ffd77a" opacity="0.76"/><rect x="331.9" y="478.8" width="10" height="6" rx="1.4" fill="#79dced" opacity="0.92"/><rect x="358.1" y="478.8" width="10" height="6" rx="1.4" fill="#79dced" opacity="0.76"/><rect x="305.6" y="498.2" width="10" height="6" rx="1.4" fill="#79dced" opacity="0.92"/><rect x="384.4" y="498.2" width="10" height="6" rx="1.4" fill="#79dced" opacity="0.76"/><rect x="331.9" y="511.7" width="10" height="6" rx="1.4" fill="#79dced" opacity="0.92"/><rect x="358.1" y="511.7" width="10" height="6" rx="1.4" fill="#79dced" opacity="0.76"/><rect x="305.6" y="531.0" width="10" height="6" rx="1.4" fill="#ffd77a" opacity="0.92"/><rect x="384.4" y="531.0" width="10" height="6" rx="1.4" fill="#ffd77a" opacity="0.76"/><rect x="331.9" y="544.5" width="10" height="6" rx="1.4" fill="#79dced" opacity="0.92"/><rect x="358.1" y="544.5" width="10" height="6" rx="1.4" fill="#79dced" opacity="0.76"/><rect x="305.6" y="563.9" width="10" height="6" rx="1.4" fill="#79dced" opacity="0.92"/><rect x="384.4" y="563.9" width="10" height="6" rx="1.4" fill="#79dced" opacity="0.76"/><rect x="318.8" y="570.6" width="10" height="6" rx="1.4" fill="#79dced" opacity="0.92"/><rect x="371.2" y="570.6" width="10" height="6" rx="1.4" fill="#79dced" opacity="0.76"/><rect x="331.9" y="577.4" width="10" height="6" rx="1.4" fill="#79dced" opacity="0.92"/><rect x="358.1" y="577.4" width="10" height="6" rx="1.4" fill="#79dced" opacity="0.76"/><polygon points="412.5,209.0 475,240 475,560 412.5,529.0" fill="#142f45"/><polygon points="537.5,209.0 475,240 475,560 537.5,529.0" fill="#23536f"/><polygon points="412.5,209.0 475,178 537.5,209.0 475,240" fill="#67c9e6" stroke="#a4edf4" stroke-opacity=".12"/><rect x="423.1" y="259.5" width="10" height="6" rx="1.4" fill="#ffd77a" opacity="0.92"/><rect x="516.9" y="259.5" width="10" height="6" rx="1.4" fill="#ffd77a" opacity="0.76"/><rect x="438.8" y="267.2" width="10" height="6" rx="1.4" fill="#79dced" opacity="0.92"/><rect x="501.2" y="267.2" width="10" height="6" rx="1.4" fill="#79dced" opacity="0.76"/><rect x="454.4" y="275.0" width="10" height="6" rx="1.4" fill="#ffd77a" opacity="0.92"/><rect x="485.6" y="275.0" width="10" height="6" rx="1.4" fill="#ffd77a" opacity="0.76"/><rect x="423.1" y="305.2" width="10" height="6" rx="1.4" fill="#79dced" opacity="0.92"/><rect x="516.9" y="305.2" width="10" height="6" rx="1.4" fill="#79dced" opacity="0.76"/><rect x="438.8" y="312.9" width="10" height="6" rx="1.4" fill="#79dced" opacity="0.92"/><rect x="501.2" y="312.9" width="10" height="6" rx="1.4" fill="#79dced" opacity="0.76"/><rect x="454.4" y="320.7" width="10" height="6" rx="1.4" fill="#ffd77a" opacity="0.92"/><rect x="485.6" y="320.7" width="10" height="6" rx="1.4" fill="#ffd77a" opacity="0.76"/><rect x="423.1" y="350.9" width="10" height="6" rx="1.4" fill="#79dced" opacity="0.92"/><rect x="516.9" y="350.9" width="10" height="6" rx="1.4" fill="#79dced" opacity="0.76"/><rect x="438.8" y="358.6" width="10" height="6" rx="1.4" fill="#79dced" opacity="0.92"/><rect x="501.2" y="358.6" width="10" height="6" rx="1.4" fill="#79dced" opacity="0.76"/><rect x="454.4" y="366.4" width="10" height="6" rx="1.4" fill="#ffd77a" opacity="0.92"/><rect x="485.6" y="366.4" width="10" height="6" rx="1.4" fill="#ffd77a" opacity="0.76"/><rect x="438.8" y="404.4" width="10" height="6" rx="1.4" fill="#ffd77a" opacity="0.92"/><rect x="501.2" y="404.4" width="10" height="6" rx="1.4" fill="#ffd77a" opacity="0.76"/><rect x="454.4" y="412.1" width="10" height="6" rx="1.4" fill="#79dced" opacity="0.92"/><rect x="485.6" y="412.1" width="10" height="6" rx="1.4" fill="#79dced" opacity="0.76"/><rect x="438.8" y="450.1" width="10" height="6" rx="1.4" fill="#ffd77a" opacity="0.92"/><rect x="501.2" y="450.1" width="10" height="6" rx="1.4" fill="#ffd77a" opacity="0.76"/><rect x="454.4" y="457.8" width="10" height="6" rx="1.4" fill="#79dced" opacity="0.92"/><rect x="485.6" y="457.8" width="10" height="6" rx="1.4" fill="#79dced" opacity="0.76"/><rect x="454.4" y="503.5" width="10" height="6" rx="1.4" fill="#ffd77a" opacity="0.92"/><rect x="485.6" y="503.5" width="10" height="6" rx="1.4" fill="#ffd77a" opacity="0.76"/><polygon points="554.0,322.0 610,350 610,610 554.0,582.0" fill="#142f45"/><polygon points="666.0,322.0 610,350 610,610 666.0,582.0" fill="#23536f"/><polygon points="554.0,322.0 610,294 666.0,322.0 610,350" fill="#67c9e6" stroke="#a4edf4" stroke-opacity=".12"/><rect x="563.0" y="363.1" width="10" height="6" rx="1.4" fill="#ffd77a" opacity="0.92"/><rect x="647.0" y="363.1" width="10" height="6" rx="1.4" fill="#ffd77a" opacity="0.76"/><rect x="577.0" y="370.1" width="10" height="6" rx="1.4" fill="#79dced" opacity="0.92"/><rect x="633.0" y="370.1" width="10" height="6" rx="1.4" fill="#79dced" opacity="0.76"/><rect x="591.0" y="377.1" width="10" height="6" rx="1.4" fill="#79dced" opacity="0.92"/><rect x="619.0" y="377.1" width="10" height="6" rx="1.4" fill="#79dced" opacity="0.76"/><rect x="563.0" y="400.3" width="10" height="6" rx="1.4" fill="#79dced" opacity="0.92"/><rect x="647.0" y="400.3" width="10" height="6" rx="1.4" fill="#79dced" opacity="0.76"/><rect x="591.0" y="414.3" width="10" height="6" rx="1.4" fill="#79dced" opacity="0.92"/><rect x="619.0" y="414.3" width="10" height="6" rx="1.4" fill="#79dced" opacity="0.76"/><rect x="577.0" y="444.4" width="10" height="6" rx="1.4" fill="#ffd77a" opacity="0.92"/><rect x="633.0" y="444.4" width="10" height="6" rx="1.4" fill="#ffd77a" opacity="0.76"/><rect x="563.0" y="474.6" width="10" height="6" rx="1.4" fill="#ffd77a" opacity="0.92"/><rect x="647.0" y="474.6" width="10" height="6" rx="1.4" fill="#ffd77a" opacity="0.76"/><rect x="591.0" y="525.7" width="10" height="6" rx="1.4" fill="#ffd77a" opacity="0.92"/><rect x="619.0" y="525.7" width="10" height="6" rx="1.4" fill="#ffd77a" opacity="0.76"/><rect x="563.0" y="548.9" width="10" height="6" rx="1.4" fill="#79dced" opacity="0.92"/><rect x="647.0" y="548.9" width="10" height="6" rx="1.4" fill="#79dced" opacity="0.76"/><rect x="577.0" y="555.9" width="10" height="6" rx="1.4" fill="#ffd77a" opacity="0.92"/><rect x="633.0" y="555.9" width="10" height="6" rx="1.4" fill="#ffd77a" opacity="0.76"/><rect x="591.0" y="562.9" width="10" height="6" rx="1.4" fill="#ffd77a" opacity="0.92"/><rect x="619.0" y="562.9" width="10" height="6" rx="1.4" fill="#ffd77a" opacity="0.76"/><polygon points="659.0,489.0 700,510 700,650 659.0,629.0" fill="#142f45"/><polygon points="741.0,489.0 700,510 700,650 741.0,629.0" fill="#23536f"/><polygon points="659.0,489.0 700,468 741.0,489.0 700,510" fill="#67c9e6" stroke="#a4edf4" stroke-opacity=".12"/><rect x="667.7" y="528.0" width="10" height="6" rx="1.4" fill="#79dced" opacity="0.92"/><rect x="722.3" y="528.0" width="10" height="6" rx="1.4" fill="#79dced" opacity="0.76"/><rect x="667.7" y="563.0" width="10" height="6" rx="1.4" fill="#79dced" opacity="0.92"/><rect x="722.3" y="563.0" width="10" height="6" rx="1.4" fill="#79dced" opacity="0.76"/><rect x="681.3" y="605.0" width="10" height="6" rx="1.4" fill="#79dced" opacity="0.92"/><rect x="708.7" y="605.0" width="10" height="6" rx="1.4" fill="#79dced" opacity="0.76"/><polygon points="375.0,518.0 420,540 420,665 375.0,643.0" fill="#142f45"/><polygon points="465.0,518.0 420,540 420,665 465.0,643.0" fill="#23536f"/><polygon points="375.0,518.0 420,496 465.0,518.0 420,540" fill="#67c9e6" stroke="#a4edf4" stroke-opacity=".12"/><rect x="385.0" y="553.6" width="10" height="6" rx="1.4" fill="#79dced" opacity="0.92"/><rect x="445.0" y="553.6" width="10" height="6" rx="1.4" fill="#79dced" opacity="0.76"/><rect x="385.0" y="616.1" width="10" height="6" rx="1.4" fill="#79dced" opacity="0.92"/><rect x="445.0" y="616.1" width="10" height="6" rx="1.4" fill="#79dced" opacity="0.76"/><rect x="400.0" y="623.4" width="10" height="6" rx="1.4" fill="#ffd77a" opacity="0.92"/><rect x="430.0" y="623.4" width="10" height="6" rx="1.4" fill="#ffd77a" opacity="0.76"/><path d="M310 641L470 565L660 646" stroke="#7fe6ff" stroke-width="4" opacity=".55"/><circle cx="475" cy="548" r="12" fill="#ffcf63" opacity=".9"/></svg>