<svg xmlns="http://www.w3.org/2000/svg" width="1024" height="768" viewBox="0 0 1024 768" fill="none">
  <defs>
    <linearGradient id="ground" x1="240" y1="330" x2="760" y2="690" gradientUnits="userSpaceOnUse">
      <stop stop-color="#244C48"/>
      <stop offset="1" stop-color="#112825"/>
    </linearGradient>
    <linearGradient id="road" x1="300" y1="390" x2="720" y2="630" gradientUnits="userSpaceOnUse">
      <stop stop-color="#3A4B50"/>
      <stop offset="1" stop-color="#1B292E"/>
    </linearGradient>
    <linearGradient id="cyanFace" x1="0" y1="0" x2="1" y2="1">
      <stop stop-color="#2A7892"/>
      <stop offset="1" stop-color="#123845"/>
    </linearGradient>
    <filter id="glow" x="-80%" y="-80%" width="260%" height="260%">
      <feGaussianBlur stdDeviation="9" result="blur"/>
      <feMerge><feMergeNode in="blur"/><feMergeNode in="SourceGraphic"/></feMerge>
    </filter>
    <filter id="soft" x="-40%" y="-40%" width="180%" height="180%">
      <feGaussianBlur stdDeviation="16"/>
    </filter>
  </defs>
<ellipse cx="512" cy="650" rx="330" ry="78" fill="#02080B" opacity="0.52" filter="url(#soft)"/>
<polygon points="512,357 867,535 512,713 157,535" fill="#17201F" stroke="#4B3438" opacity="0.98"/>
<path d="M230 545L505 410L795 557" stroke="#0A1216" stroke-width="48" stroke-linecap="round" opacity="0.88"/>
<path d="M230 545L505 410L795 557" stroke="url(#road)" stroke-width="34" stroke-linecap="round"/>
<path d="M355 625L512 535L675 625" stroke="#26383D" stroke-width="24" stroke-linecap="round"/>
<ellipse cx="350" cy="589.2" rx="111.6" ry="32.64" fill="#02080C" opacity="0.42" filter="url(#soft)"/>
<polygon points="260.0,464.0 350,498 350,613 260.0,579.0" fill="#151C21"/>
<polygon points="440.0,464.0 350,498 350,613 440.0,579.0" fill="#20292E"/>
<polygon points="350,430 440.0,464.0 350,498 260.0,464.0" fill="#E99A55"/>
<rect x="316.5" y="516.0" width="10" height="7" rx="1.5" fill="#352D29" opacity="0.48"/>
<rect x="335.5" y="516.0" width="10" height="7" rx="1.5" fill="#26333A" opacity="0.48"/>
<rect x="354.5" y="516.0" width="10" height="7" rx="1.5" fill="#26333A" opacity="0.48"/>
<rect x="373.5" y="516.0" width="10" height="7" rx="1.5" fill="#26333A" opacity="0.48"/>
<rect x="316.5" y="556.5" width="10" height="7" rx="1.5" fill="#26333A" opacity="0.48"/>
<rect x="335.5" y="556.5" width="10" height="7" rx="1.5" fill="#26333A" opacity="0.48"/>
<rect x="354.5" y="556.5" width="10" height="7" rx="1.5" fill="#26333A" opacity="0.48"/>
<rect x="373.5" y="556.5" width="10" height="7" rx="1.5" fill="#352D29" opacity="0.48"/>
<circle cx="400.4" cy="460.6" r="4" fill="#FF5F72" filter="url(#glow)"/>
<ellipse cx="560" cy="546.8" rx="124.0" ry="34.56" fill="#02080C" opacity="0.42" filter="url(#soft)"/>
<polygon points="460.0,391.0 560,427 560,572 460.0,536.0" fill="#151C21"/>
<polygon points="660.0,391.0 560,427 560,572 660.0,536.0" fill="#20292E"/>
<polygon points="560,355 660.0,391.0 560,427 460.0,391.0" fill="#F0A565"/>
<rect x="517.0" y="445.0" width="10" height="7" rx="1.5" fill="#352D29" opacity="0.48"/>
<rect x="536.0" y="445.0" width="10" height="7" rx="1.5" fill="#26333A" opacity="0.48"/>
<rect x="555.0" y="445.0" width="10" height="7" rx="1.5" fill="#26333A" opacity="0.48"/>
<rect x="574.0" y="445.0" width="10" height="7" rx="1.5" fill="#26333A" opacity="0.48"/>
<rect x="593.0" y="445.0" width="10" height="7" rx="1.5" fill="#352D29" opacity="0.48"/>
<rect x="517.0" y="482.0" width="10" height="7" rx="1.5" fill="#26333A" opacity="0.48"/>
<rect x="536.0" y="482.0" width="10" height="7" rx="1.5" fill="#26333A" opacity="0.48"/>
<rect x="555.0" y="482.0" width="10" height="7" rx="1.5" fill="#26333A" opacity="0.48"/>
<rect x="574.0" y="482.0" width="10" height="7" rx="1.5" fill="#352D29" opacity="0.48"/>
<rect x="593.0" y="482.0" width="10" height="7" rx="1.5" fill="#26333A" opacity="0.48"/>
<rect x="517.0" y="519.0" width="10" height="7" rx="1.5" fill="#26333A" opacity="0.48"/>
<rect x="536.0" y="519.0" width="10" height="7" rx="1.5" fill="#26333A" opacity="0.48"/>
<rect x="555.0" y="519.0" width="10" height="7" rx="1.5" fill="#352D29" opacity="0.48"/>
<rect x="574.0" y="519.0" width="10" height="7" rx="1.5" fill="#26333A" opacity="0.48"/>
<rect x="593.0" y="519.0" width="10" height="7" rx="1.5" fill="#26333A" opacity="0.48"/>
<circle cx="616.0" cy="387.4" r="4" fill="#FF5F72" filter="url(#glow)"/>
<ellipse cx="690" cy="642.7" rx="89.9" ry="27.84" fill="#02080C" opacity="0.42" filter="url(#soft)"/>
<polygon points="617.5,544.0 690,573 690,663 617.5,634.0" fill="#151C21"/>
<polygon points="762.5,544.0 690,573 690,663 762.5,634.0" fill="#20292E"/>
<polygon points="690,515 762.5,544.0 690,573 617.5,544.0" fill="#DB8F55"/>
<rect x="656.5" y="591.0" width="10" height="7" rx="1.5" fill="#352D29" opacity="0.48"/>
<rect x="675.5" y="591.0" width="10" height="7" rx="1.5" fill="#26333A" opacity="0.48"/>
<rect x="694.5" y="591.0" width="10" height="7" rx="1.5" fill="#26333A" opacity="0.48"/>
<rect x="713.5" y="591.0" width="10" height="7" rx="1.5" fill="#26333A" opacity="0.48"/>
<rect x="656.5" y="619.0" width="10" height="7" rx="1.5" fill="#26333A" opacity="0.48"/>
<rect x="675.5" y="619.0" width="10" height="7" rx="1.5" fill="#26333A" opacity="0.48"/>
<rect x="694.5" y="619.0" width="10" height="7" rx="1.5" fill="#26333A" opacity="0.48"/>
<rect x="713.5" y="619.0" width="10" height="7" rx="1.5" fill="#352D29" opacity="0.48"/>
<circle cx="730.6" cy="541.1" r="4" fill="#FF5F72" filter="url(#glow)"/>
<rect x="420" y="330" width="20" height="185" rx="6" fill="#5B6263"/><ellipse cx="430" cy="330" rx="10" ry="5" fill="#D58A4F"/>
<rect x="455" y="330" width="20" height="185" rx="6" fill="#5B6263"/><ellipse cx="465" cy="330" rx="10" ry="5" fill="#D58A4F"/>
<ellipse cx="710" cy="500" rx="43" ry="22" fill="#866344"/><rect x="667" y="500" width="86" height="78" fill="#4B4C49"/><ellipse cx="710" cy="578" rx="43" ry="22" fill="#373D3C"/>
<ellipse cx="755" cy="500" rx="43" ry="22" fill="#866344"/><rect x="712" y="500" width="86" height="78" fill="#4B4C49"/><ellipse cx="755" cy="578" rx="43" ry="22" fill="#373D3C"/>
<g transform="translate(260 575)">
  <rect x="-2" y="-27" width="4" height="30" rx="2" fill="#6E8890"/>
  <circle cx="0" cy="-30" r="5" fill="#404B4F" opacity="0.95" />
</g>
<g transform="translate(410 655)">
  <rect x="-2" y="-27" width="4" height="30" rx="2" fill="#6E8890"/>
  <circle cx="0" cy="-30" r="5" fill="#404B4F" opacity="0.95" />
</g>
<g transform="translate(610 650)">
  <rect x="-2" y="-27" width="4" height="30" rx="2" fill="#6E8890"/>
  <circle cx="0" cy="-30" r="5" fill="#404B4F" opacity="0.95" />
</g>
<g transform="translate(760 580)">
  <rect x="-2" y="-27" width="4" height="30" rx="2" fill="#6E8890"/>
  <circle cx="0" cy="-30" r="5" fill="#404B4F" opacity="0.95" />
</g>
<path d="M250 545L505 420L782 557" stroke="#FF5F72" stroke-width="3" opacity="0.22"/>
</svg>
