<svg xmlns="http://www.w3.org/2000/svg" width="1024" height="768" viewBox="0 0 1024 768" fill="none"><defs>
<linearGradient id="lot" x1="250" y1="450" x2="760" y2="700"><stop stop-color="#294a45"/><stop offset="1" stop-color="#122b28"/></linearGradient>
<filter id="soft"><feGaussianBlur stdDeviation="10"/></filter>
<style>.cyan{fill:#77d9eb}.warm{fill:#ffd77a}.off{fill:#32434b}</style>
</defs><ellipse cx="512" cy="648" rx="265" ry="62" fill="#02080b" opacity=".42" filter="url(#soft)"/><polygon points="512,405 790,548 512,690 234,548" fill="url(#lot)" opacity=".82" stroke="#4b8076" stroke-opacity=".35"/><path d="M285 558L500 449L742 571" stroke="#10191d" stroke-width="34" stroke-linecap="round"/><path d="M285 558L500 449L742 571" stroke="#34464b" stroke-width="22" stroke-linecap="round" opacity=".88"/><polygon points="265.0,502.0 340,535 340,630 265.0,597.0" fill="#342d2a"/><polygon points="415.0,502.0 340,535 340,630 415.0,597.0" fill="#594038"/><polygon points="265.0,502.0 340,469 415.0,502.0 340,535" fill="#b87550" stroke="#a4edf4" stroke-opacity=".12"/><rect x="275.0" y="537.3" width="10" height="6" rx="1.4" fill="#ffd77a" opacity="0.92"/><rect x="395.0" y="537.3" width="10" height="6" rx="1.4" fill="#ffd77a" opacity="0.76"/><rect x="290.0" y="543.9" width="10" height="6" rx="1.4" fill="#ffd77a" opacity="0.92"/><rect x="380.0" y="543.9" width="10" height="6" rx="1.4" fill="#ffd77a" opacity="0.76"/><rect x="305.0" y="550.5" width="10" height="6" rx="1.4" fill="#79dced" opacity="0.92"/><rect x="365.0" y="550.5" width="10" height="6" rx="1.4" fill="#79dced" opacity="0.76"/><rect x="320.0" y="557.1" width="10" height="6" rx="1.4" fill="#ffd77a" opacity="0.92"/><rect x="350.0" y="557.1" width="10" height="6" rx="1.4" fill="#ffd77a" opacity="0.76"/><rect x="275.0" y="568.9" width="10" height="6" rx="1.4" fill="#ffd77a" opacity="0.92"/><rect x="395.0" y="568.9" width="10" height="6" rx="1.4" fill="#ffd77a" opacity="0.76"/><rect x="290.0" y="575.5" width="10" height="6" rx="1.4" fill="#79dced" opacity="0.92"/><rect x="380.0" y="575.5" width="10" height="6" rx="1.4" fill="#79dced" opacity="0.76"/><rect x="320.0" y="588.7" width="10" height="6" rx="1.4" fill="#ffd77a" opacity="0.92"/><rect x="350.0" y="588.7" width="10" height="6" rx="1.4" fill="#ffd77a" opacity="0.76"/><polygon points="432.5,449.0 520,485 520,600 432.5,564.0" fill="#342d2a"/><polygon points="607.5,449.0 520,485 520,600 607.5,564.0" fill="#594038"/><polygon points="432.5,449.0 520,413 607.5,449.0 520,485" fill="#b87550" stroke="#a4edf4" stroke-opacity=".12"/><rect x="445.0" y="481.9" width="10" height="6" rx="1.4" fill="#79dced" opacity="0.92"/><rect x="585.0" y="481.9" width="10" height="6" rx="1.4" fill="#79dced" opacity="0.76"/><rect x="462.5" y="489.1" width="10" height="6" rx="1.4" fill="#79dced" opacity="0.92"/><rect x="567.5" y="489.1" width="10" height="6" rx="1.4" fill="#79dced" opacity="0.76"/><rect x="480.0" y="496.4" width="10" height="6" rx="1.4" fill="#79dced" opacity="0.92"/><rect x="550.0" y="496.4" width="10" height="6" rx="1.4" fill="#79dced" opacity="0.76"/><rect x="445.0" y="510.7" width="10" height="6" rx="1.4" fill="#79dced" opacity="0.92"/><rect x="585.0" y="510.7" width="10" height="6" rx="1.4" fill="#79dced" opacity="0.76"/><rect x="480.0" y="525.1" width="10" height="6" rx="1.4" fill="#79dced" opacity="0.92"/><rect x="550.0" y="525.1" width="10" height="6" rx="1.4" fill="#79dced" opacity="0.76"/><rect x="497.5" y="532.3" width="10" height="6" rx="1.4" fill="#79dced" opacity="0.92"/><rect x="532.5" y="532.3" width="10" height="6" rx="1.4" fill="#79dced" opacity="0.76"/><rect x="462.5" y="546.6" width="10" height="6" rx="1.4" fill="#79dced" opacity="0.92"/><rect x="567.5" y="546.6" width="10" height="6" rx="1.4" fill="#79dced" opacity="0.76"/><rect x="497.5" y="561.0" width="10" height="6" rx="1.4" fill="#ffd77a" opacity="0.92"/><rect x="532.5" y="561.0" width="10" height="6" rx="1.4" fill="#ffd77a" opacity="0.76"/><polygon points="610.0,526.0 680,557 680,645 610.0,614.0" fill="#342d2a"/><polygon points="750.0,526.0 680,557 680,645 750.0,614.0" fill="#594038"/><polygon points="610.0,526.0 680,495 750.0,526.0 680,557" fill="#b87550" stroke="#a4edf4" stroke-opacity=".12"/><rect x="633.0" y="564.7" width="10" height="6" rx="1.4" fill="#79dced" opacity="0.92"/><rect x="717.0" y="564.7" width="10" height="6" rx="1.4" fill="#79dced" opacity="0.76"/><rect x="647.0" y="570.9" width="10" height="6" rx="1.4" fill="#79dced" opacity="0.92"/><rect x="703.0" y="570.9" width="10" height="6" rx="1.4" fill="#79dced" opacity="0.76"/><rect x="661.0" y="577.1" width="10" height="6" rx="1.4" fill="#79dced" opacity="0.92"/><rect x="689.0" y="577.1" width="10" height="6" rx="1.4" fill="#79dced" opacity="0.76"/><rect x="619.0" y="587.9" width="10" height="6" rx="1.4" fill="#79dced" opacity="0.92"/><rect x="731.0" y="587.9" width="10" height="6" rx="1.4" fill="#79dced" opacity="0.76"/><rect x="633.0" y="594.1" width="10" height="6" rx="1.4" fill="#ffd77a" opacity="0.92"/><rect x="717.0" y="594.1" width="10" height="6" rx="1.4" fill="#ffd77a" opacity="0.76"/><rect x="647.0" y="600.3" width="10" height="6" rx="1.4" fill="#79dced" opacity="0.92"/><rect x="703.0" y="600.3" width="10" height="6" rx="1.4" fill="#79dced" opacity="0.76"/><rect x="661.0" y="606.5" width="10" height="6" rx="1.4" fill="#79dced" opacity="0.92"/><rect x="689.0" y="606.5" width="10" height="6" rx="1.4" fill="#79dced" opacity="0.76"/><polygon points="367.5,596.0 430,623 430,685 367.5,658.0" fill="#342d2a"/><polygon points="492.5,596.0 430,623 430,685 492.5,658.0" fill="#594038"/><polygon points="367.5,596.0 430,569 492.5,596.0 430,623" fill="#b87550" stroke="#a4edf4" stroke-opacity=".12"/><rect x="378.1" y="620.4" width="10" height="6" rx="1.4" fill="#79dced" opacity="0.92"/><rect x="471.9" y="620.4" width="10" height="6" rx="1.4" fill="#79dced" opacity="0.76"/><rect x="393.8" y="627.2" width="10" height="6" rx="1.4" fill="#79dced" opacity="0.92"/><rect x="456.2" y="627.2" width="10" height="6" rx="1.4" fill="#79dced" opacity="0.76"/><rect x="378.1" y="641.1" width="10" height="6" rx="1.4" fill="#79dced" opacity="0.92"/><rect x="471.9" y="641.1" width="10" height="6" rx="1.4" fill="#79dced" opacity="0.76"/><rect x="376" y="370" width="28" height="150" fill="#3b474a"/><ellipse cx="390" cy="370" rx="14" ry="6" fill="#8b5542"/><rect x="376" y="398" width="28" height="16" fill="#dbe5e0" opacity=".65"/><rect x="546" y="325" width="28" height="175" fill="#3b474a"/><ellipse cx="560" cy="325" rx="14" ry="6" fill="#8b5542"/><rect x="546" y="353" width="28" height="16" fill="#dbe5e0" opacity=".65"/><rect x="676" y="410" width="28" height="130" fill="#3b474a"/><ellipse cx="690" cy="410" rx="14" ry="6" fill="#8b5542"/><rect x="676" y="438" width="28" height="16" fill="#dbe5e0" opacity=".65"/></svg>