<svg xmlns="http://www.w3.org/2000/svg" width="1024" height="768" viewBox="0 0 1024 768" fill="none">
<defs>
  <linearGradient id="cityGround" x1="300" y1="220" x2="760" y2="650" gradientUnits="userSpaceOnUse"><stop stop-color="#24433D"/><stop offset="1" stop-color="#122A27"/></linearGradient>
  <linearGradient id="water" x1="100" y1="120" x2="420" y2="600" gradientUnits="userSpaceOnUse"><stop stop-color="#092A3A"/><stop offset="1" stop-color="#061923"/></linearGradient>
  <linearGradient id="coast" x1="220" y1="560" x2="780" y2="760" gradientUnits="userSpaceOnUse"><stop stop-color="#1C3332"/><stop offset="1" stop-color="#132523"/></linearGradient>
  <linearGradient id="road" x1="280" y1="280" x2="730" y2="650" gradientUnits="userSpaceOnUse"><stop stop-color="#3B4D52"/><stop offset="1" stop-color="#202D31"/></linearGradient>
  <filter id="soft" x="-40%" y="-40%" width="180%" height="180%"><feGaussianBlur stdDeviation="12"/></filter>
</defs>
<polygon points="320.0,88.4 569.6,123.6 652.8,203.6 512.0,248.4 339.2,270.8 147.2,258.0 89.6,190.8" fill="url(#water)" stroke="#2C6779" stroke-opacity="0.36" stroke-width="2"/>
<path d="M345.6 152.0 Q 393.6 175.2 441.6 206.4" stroke="#4B9CB3" stroke-opacity="0.12" stroke-width="2"/>
<path d="M332.8 177.6 Q 377.6 199.2 422.4 228.8" stroke="#4B9CB3" stroke-opacity="0.12" stroke-width="2"/>
<path d="M320.0 203.2 Q 361.6 223.2 403.2 251.2" stroke="#4B9CB3" stroke-opacity="0.12" stroke-width="2"/>
<path d="M307.2 228.8 Q 345.6 247.2 384.0 273.6" stroke="#4B9CB3" stroke-opacity="0.12" stroke-width="2"/>
<path d="M294.4 254.4 Q 329.6 271.2 364.8 296.0" stroke="#4B9CB3" stroke-opacity="0.12" stroke-width="2"/>
<polygon points="32.0,322.3 102.4,402.3 179.2,479.1 326.4,559.1 556.8,603.9 556.8,699.9 435.2,715.9 140.8,587.9 -19.2,431.1" fill="url(#coast)" stroke="#395953" stroke-opacity="0.2"/>
<polygon points="569.6,147.2 768.0,176.0 902.4,262.4 979.2,416.0 864.0,441.6 774.4,339.2 640.0,252.8" fill="#18312D" opacity="0.72" stroke="#5C7C73" stroke-opacity="0.08"/>
<polygon points="550.4,156.1 748.8,184.9 883.2,271.3 960.0,424.9 844.8,450.5 755.2,348.1 620.8,261.7" fill="#204038" opacity="0.58" stroke="#5C7C73" stroke-opacity="0.08"/>
<polygon points="531.2,165.0 729.6,193.8 864.0,280.2 940.8,433.8 825.6,459.4 736.0,357.0 601.6,270.6" fill="#294C40" opacity="0.42" stroke="#5C7C73" stroke-opacity="0.08"/>
<polygon points="537.6,202.3 710.4,256.7 806.4,355.9 819.2,471.1 704.0,554.3 512.0,567.1 307.2,509.5 204.8,413.5 224.0,314.3 358.4,240.7" fill="url(#cityGround)" stroke="#56766F" stroke-opacity="0.22" stroke-width="2"/>
<polygon points="435.2,252.4 512.0,258.8 524.8,297.2 448.0,290.8" fill="#25433F" opacity="0.82" stroke="#78928A" stroke-opacity="0.08"/>
<polygon points="601.6,290.8 688.0,305.2 716.8,348.4 630.4,334.0" fill="#24423F" opacity="0.82" stroke="#78928A" stroke-opacity="0.08"/>
<polygon points="332.8,316.4 422.4,322.8 435.2,367.6 345.6,361.2" fill="#243C42" opacity="0.82" stroke="#78928A" stroke-opacity="0.08"/>
<polygon points="483.2,378.8 569.6,383.6 579.2,426.8 492.8,422.0" fill="#263A3D" opacity="0.82" stroke="#78928A" stroke-opacity="0.08"/>
<polygon points="576.0,418.8 665.6,425.2 678.4,470.0 588.8,463.6" fill="#3A3832" opacity="0.82" stroke="#78928A" stroke-opacity="0.08"/>
<polygon points="329.6,410.8 419.2,420.4 438.4,465.2 348.8,455.6" fill="#294943" opacity="0.82" stroke="#78928A" stroke-opacity="0.08"/>
<polygon points="534.4,506.8 617.6,513.2 630.4,554.8 547.2,548.4" fill="#322D30" opacity="0.82" stroke="#78928A" stroke-opacity="0.08"/>
<path d="M 377.6 272.0 Q 422.4 307.2 460.8 326.4 Q 499.2 345.6 540.8 363.2 Q 582.4 380.8 620.8 403.2 Q 659.2 425.6 691.2 460.8 L 723.2 496.0" stroke="#0A1114" stroke-width="28" stroke-linecap="round" stroke-linejoin="round" opacity="0.92"/>
<path d="M 377.6 272.0 Q 422.4 307.2 460.8 326.4 Q 499.2 345.6 540.8 363.2 Q 582.4 380.8 620.8 403.2 Q 659.2 425.6 691.2 460.8 L 723.2 496.0" stroke="#5C6768" stroke-width="22" stroke-linecap="round" stroke-linejoin="round" opacity="0.22"/>
<path d="M 377.6 272.0 Q 422.4 307.2 460.8 326.4 Q 499.2 345.6 540.8 363.2 Q 582.4 380.8 620.8 403.2 Q 659.2 425.6 691.2 460.8 L 723.2 496.0" stroke="url(#road)" stroke-width="18" stroke-linecap="round" stroke-linejoin="round"/>
<path d="M 377.6 272.0 Q 422.4 307.2 460.8 326.4 Q 499.2 345.6 540.8 363.2 Q 582.4 380.8 620.8 403.2 Q 659.2 425.6 691.2 460.8 L 723.2 496.0" stroke="#E4C968" stroke-width="1.5" stroke-linecap="round" opacity="0.36"/>
<path d="M 179.2 332.8 Q 281.6 364.8 329.6 382.4 Q 377.6 400.0 416.0 422.4 Q 454.4 444.8 492.8 470.4 Q 531.2 496.0 582.4 518.4 L 633.6 540.8" stroke="#0A1114" stroke-width="28" stroke-linecap="round" stroke-linejoin="round" opacity="0.92"/>
<path d="M 179.2 332.8 Q 281.6 364.8 329.6 382.4 Q 377.6 400.0 416.0 422.4 Q 454.4 444.8 492.8 470.4 Q 531.2 496.0 582.4 518.4 L 633.6 540.8" stroke="#5C6768" stroke-width="22" stroke-linecap="round" stroke-linejoin="round" opacity="0.22"/>
<path d="M 179.2 332.8 Q 281.6 364.8 329.6 382.4 Q 377.6 400.0 416.0 422.4 Q 454.4 444.8 492.8 470.4 Q 531.2 496.0 582.4 518.4 L 633.6 540.8" stroke="url(#road)" stroke-width="18" stroke-linecap="round" stroke-linejoin="round"/>
<path d="M 179.2 332.8 Q 281.6 364.8 329.6 382.4 Q 377.6 400.0 416.0 422.4 Q 454.4 444.8 492.8 470.4 Q 531.2 496.0 582.4 518.4 L 633.6 540.8" stroke="#E4C968" stroke-width="1.5" stroke-linecap="round" opacity="0.36"/>
<path d="M 396.8 281.6 Q 480.0 272.0 528.0 273.6 Q 576.0 275.2 627.2 291.2 Q 678.4 307.2 707.2 331.2 Q 736.0 355.2 755.2 380.8 L 774.4 406.4" stroke="#0A1114" stroke-width="19" stroke-linecap="round" stroke-linejoin="round" opacity="0.92"/>
<path d="M 396.8 281.6 Q 480.0 272.0 528.0 273.6 Q 576.0 275.2 627.2 291.2 Q 678.4 307.2 707.2 331.2 Q 736.0 355.2 755.2 380.8 L 774.4 406.4" stroke="#5C6768" stroke-width="13" stroke-linecap="round" stroke-linejoin="round" opacity="0.22"/>
<path d="M 396.8 281.6 Q 480.0 272.0 528.0 273.6 Q 576.0 275.2 627.2 291.2 Q 678.4 307.2 707.2 331.2 Q 736.0 355.2 755.2 380.8 L 774.4 406.4" stroke="url(#road)" stroke-width="11" stroke-linecap="round" stroke-linejoin="round"/>
<path d="M 396.8 281.6 Q 480.0 272.0 528.0 273.6 Q 576.0 275.2 627.2 291.2 Q 678.4 307.2 707.2 331.2 Q 736.0 355.2 755.2 380.8 L 774.4 406.4" stroke="#E4C968" stroke-width="0.9" stroke-linecap="round" opacity="0.16"/>
<path d="M 422.4 352.0 Q 403.2 387.2 400.0 408.0 Q 396.8 428.8 396.8 448.0 L 396.8 467.2" stroke="#0A1114" stroke-width="19" stroke-linecap="round" stroke-linejoin="round" opacity="0.92"/>
<path d="M 422.4 352.0 Q 403.2 387.2 400.0 408.0 Q 396.8 428.8 396.8 448.0 L 396.8 467.2" stroke="#5C6768" stroke-width="13" stroke-linecap="round" stroke-linejoin="round" opacity="0.22"/>
<path d="M 422.4 352.0 Q 403.2 387.2 400.0 408.0 Q 396.8 428.8 396.8 448.0 L 396.8 467.2" stroke="url(#road)" stroke-width="11" stroke-linecap="round" stroke-linejoin="round"/>
<path d="M 422.4 352.0 Q 403.2 387.2 400.0 408.0 Q 396.8 428.8 396.8 448.0 L 396.8 467.2" stroke="#E4C968" stroke-width="0.9" stroke-linecap="round" opacity="0.16"/>
<path d="M 736.0 374.4 Q 672.0 400.0 643.2 414.4 Q 614.4 428.8 614.4 454.4 Q 614.4 480.0 614.4 505.6 L 614.4 531.2" stroke="#0A1114" stroke-width="19" stroke-linecap="round" stroke-linejoin="round" opacity="0.92"/>
<path d="M 736.0 374.4 Q 672.0 400.0 643.2 414.4 Q 614.4 428.8 614.4 454.4 Q 614.4 480.0 614.4 505.6 L 614.4 531.2" stroke="#5C6768" stroke-width="13" stroke-linecap="round" stroke-linejoin="round" opacity="0.22"/>
<path d="M 736.0 374.4 Q 672.0 400.0 643.2 414.4 Q 614.4 428.8 614.4 454.4 Q 614.4 480.0 614.4 505.6 L 614.4 531.2" stroke="url(#road)" stroke-width="11" stroke-linecap="round" stroke-linejoin="round"/>
<path d="M 736.0 374.4 Q 672.0 400.0 643.2 414.4 Q 614.4 428.8 614.4 454.4 Q 614.4 480.0 614.4 505.6 L 614.4 531.2" stroke="#E4C968" stroke-width="0.9" stroke-linecap="round" opacity="0.16"/>
<polygon points="407.0,294.7 437.8,294.7 437.8,310.1 407.0,310.1" fill="#33494B" stroke="#B3C1BB" stroke-opacity="0.14"/>
<polygon points="486.4,340.8 524.8,340.8 524.8,360.0 486.4,360.0" fill="#374C51" stroke="#B3C1BB" stroke-opacity="0.14"/>
<polygon points="431.4,434.9 464.6,434.9 464.6,451.5 431.4,451.5" fill="#31534D" stroke="#B3C1BB" stroke-opacity="0.14"/>
<polygon points="629.8,418.9 663.0,418.9 663.0,435.5 629.8,435.5" fill="#49423C" stroke="#B3C1BB" stroke-opacity="0.14"/>
<polygon points="547.2,333.4 633.6,344.6 656.0,387.8 569.6,376.6" fill="#2D5C45" opacity="0.95" stroke="#65A17C" stroke-opacity="0.22"/>
<polygon points="343.0,289.0 402.6,293.8 412.2,323.6 352.6,318.8" fill="#1B2E2D" opacity="0.92" stroke="#70857E" stroke-opacity="0.12"/>
<ellipse cx="369.9" cy="301.0" rx="13.0" ry="4.2" fill="#02080B" opacity="0.26" filter="url(#soft)"/><polygon points="361.6,270.4 362.9,278.1 362.9,296.5 361.6,288.8" fill="#3A5059"/><polygon points="362.9,278.1 378.2,278.7 378.2,297.1 362.9,296.5" fill="#2D4148"/><polygon points="361.6,270.4 377.0,271.1 378.2,278.7 362.9,278.1" fill="#596F7A" stroke="#F0CE75" stroke-opacity="0.25"/><rect x="362.1" y="283.5" width="4.4" height="3" rx="0.8" fill="#FFD77A" opacity="0.76"/><rect x="367.2" y="286.0" width="4.4" height="3" rx="0.8" fill="#FFD77A" opacity="0.76"/>
<ellipse cx="387.2" cy="312.2" rx="14.0" ry="4.4" fill="#02080B" opacity="0.26" filter="url(#soft)"/><polygon points="378.2,276.7 379.8,284.9 379.8,307.9 378.2,299.7" fill="#3A5059"/><polygon points="379.8,284.9 396.2,285.7 396.2,308.7 379.8,307.9" fill="#2D4148"/><polygon points="378.2,276.7 394.6,277.5 396.2,285.7 379.8,284.9" fill="#596F7A" stroke="#F0CE75" stroke-opacity="0.25"/><rect x="377.7" y="291.9" width="4.4" height="3" rx="0.8" fill="#8FEAFF" opacity="0.76"/><rect x="381.8" y="293.9" width="4.4" height="3" rx="0.8" fill="#8FEAFF" opacity="0.76"/><rect x="385.9" y="296.0" width="4.4" height="3" rx="0.8" fill="#8FEAFF" opacity="0.76"/>
<ellipse cx="366.1" cy="314.5" rx="12.0" ry="3.6" fill="#02080B" opacity="0.26" filter="url(#soft)"/><polygon points="358.4,287.0 360.0,293.9 360.0,309.4 358.4,302.6" fill="#3A5059"/><polygon points="360.0,293.9 373.8,294.7 373.8,310.2 360.0,309.4" fill="#2D4148"/><polygon points="358.4,287.0 372.2,287.8 373.8,294.7 360.0,293.9" fill="#596F7A" stroke="#F0CE75" stroke-opacity="0.25"/><rect x="358.6" y="298.0" width="4.4" height="3" rx="0.8" fill="#8FEAFF" opacity="0.76"/><rect x="363.8" y="300.5" width="4.4" height="3" rx="0.8" fill="#8FEAFF" opacity="0.76"/>
<polygon points="464.6,273.0 524.2,277.8 533.8,307.6 474.2,302.8" fill="#1B2E2D" opacity="0.92" stroke="#70857E" stroke-opacity="0.12"/>
<ellipse cx="491.5" cy="285.0" rx="13.0" ry="4.2" fill="#02080B" opacity="0.26" filter="url(#soft)"/><polygon points="483.2,254.4 484.5,262.1 484.5,280.5 483.2,272.8" fill="#315A64"/><polygon points="484.5,262.1 499.8,262.7 499.8,281.1 484.5,280.5" fill="#254952"/><polygon points="483.2,254.4 498.6,255.1 499.8,262.7 484.5,262.1" fill="#4C8190" stroke="#79D1E3" stroke-opacity="0.25"/><rect x="482.1" y="266.7" width="4.4" height="3" rx="0.8" fill="#8FEAFF" opacity="0.76"/><rect x="486.2" y="268.7" width="4.4" height="3" rx="0.8" fill="#8FEAFF" opacity="0.76"/><rect x="490.3" y="270.8" width="4.4" height="3" rx="0.8" fill="#8FEAFF" opacity="0.76"/>
<ellipse cx="508.8" cy="296.2" rx="14.0" ry="4.4" fill="#02080B" opacity="0.26" filter="url(#soft)"/><polygon points="499.8,260.7 501.4,268.8 501.4,291.8 499.8,283.7" fill="#315A64"/><polygon points="501.4,268.8 517.8,269.7 517.8,292.7 501.4,291.8" fill="#254952"/><polygon points="499.8,260.7 516.2,261.5 517.8,269.7 501.4,268.8" fill="#4C8190" stroke="#79D1E3" stroke-opacity="0.25"/><rect x="500.8" y="276.7" width="4.4" height="3" rx="0.8" fill="#FFD77A" opacity="0.76"/><rect x="505.9" y="279.2" width="4.4" height="3" rx="0.8" fill="#FFD77A" opacity="0.76"/>
<ellipse cx="487.7" cy="298.5" rx="12.0" ry="3.6" fill="#02080B" opacity="0.26" filter="url(#soft)"/><polygon points="480.0,271.0 481.6,277.9 481.6,293.4 480.0,286.6" fill="#315A64"/><polygon points="481.6,277.9 495.4,278.7 495.4,294.2 481.6,293.4" fill="#254952"/><polygon points="480.0,271.0 493.8,271.8 495.4,278.7 481.6,277.9" fill="#4C8190" stroke="#79D1E3" stroke-opacity="0.25"/><rect x="478.7" y="281.2" width="4.4" height="3" rx="0.8" fill="#8FEAFF" opacity="0.76"/><rect x="482.8" y="283.3" width="4.4" height="3" rx="0.8" fill="#8FEAFF" opacity="0.76"/><rect x="486.9" y="285.3" width="4.4" height="3" rx="0.8" fill="#8FEAFF" opacity="0.76"/>
<polygon points="496.6,372.2 556.2,377.0 565.8,406.8 506.2,402.0" fill="#1B2E2D" opacity="0.92" stroke="#70857E" stroke-opacity="0.12"/>
<ellipse cx="523.5" cy="384.2" rx="13.0" ry="4.2" fill="#02080B" opacity="0.26" filter="url(#soft)"/><polygon points="515.2,353.6 516.5,361.3 516.5,379.7 515.2,372.0" fill="#3A5059"/><polygon points="516.5,361.3 531.8,361.9 531.8,380.3 516.5,379.7" fill="#2D4148"/><polygon points="515.2,353.6 530.6,354.2 531.8,361.9 516.5,361.3" fill="#596F7A" stroke="#F0CE75" stroke-opacity="0.25"/><rect x="515.7" y="366.7" width="4.4" height="3" rx="0.8" fill="#8FEAFF" opacity="0.76"/><rect x="520.8" y="369.2" width="4.4" height="3" rx="0.8" fill="#8FEAFF" opacity="0.76"/>
<ellipse cx="540.8" cy="395.4" rx="14.0" ry="4.4" fill="#02080B" opacity="0.26" filter="url(#soft)"/><polygon points="531.8,359.9 533.4,368.0 533.4,391.0 531.8,382.9" fill="#3A5059"/><polygon points="533.4,368.0 549.8,368.9 549.8,391.9 533.4,391.0" fill="#2D4148"/><polygon points="531.8,359.9 548.2,360.7 549.8,368.9 533.4,368.0" fill="#596F7A" stroke="#F0CE75" stroke-opacity="0.25"/><rect x="531.3" y="375.1" width="4.4" height="3" rx="0.8" fill="#8FEAFF" opacity="0.76"/><rect x="535.4" y="377.1" width="4.4" height="3" rx="0.8" fill="#8FEAFF" opacity="0.76"/><rect x="539.5" y="379.2" width="4.4" height="3" rx="0.8" fill="#8FEAFF" opacity="0.76"/>
<ellipse cx="519.7" cy="397.7" rx="12.0" ry="3.6" fill="#02080B" opacity="0.26" filter="url(#soft)"/><polygon points="512.0,370.2 513.6,377.1 513.6,392.7 512.0,385.8" fill="#3A5059"/><polygon points="513.6,377.1 527.4,377.9 527.4,393.4 513.6,392.7" fill="#2D4148"/><polygon points="512.0,370.2 525.8,371.0 527.4,377.9 513.6,377.1" fill="#596F7A" stroke="#F0CE75" stroke-opacity="0.25"/><rect x="512.2" y="381.2" width="4.4" height="3" rx="0.8" fill="#FFD77A" opacity="0.76"/><rect x="517.4" y="383.7" width="4.4" height="3" rx="0.8" fill="#FFD77A" opacity="0.76"/>
<polygon points="618.2,349.8 677.8,354.6 687.4,384.4 627.8,379.6" fill="#1B2E2D" opacity="0.92" stroke="#70857E" stroke-opacity="0.12"/>
<ellipse cx="645.1" cy="361.8" rx="13.0" ry="4.2" fill="#02080B" opacity="0.26" filter="url(#soft)"/><polygon points="636.8,331.2 638.1,338.9 638.1,357.3 636.8,349.6" fill="#315A64"/><polygon points="638.1,338.9 653.4,339.5 653.4,357.9 638.1,357.3" fill="#254952"/><polygon points="636.8,331.2 652.2,331.8 653.4,339.5 638.1,338.9" fill="#4C8190" stroke="#79D1E3" stroke-opacity="0.25"/><rect x="635.7" y="343.5" width="4.4" height="3" rx="0.8" fill="#FFD77A" opacity="0.76"/><rect x="639.8" y="345.5" width="4.4" height="3" rx="0.8" fill="#FFD77A" opacity="0.76"/><rect x="643.9" y="347.6" width="4.4" height="3" rx="0.8" fill="#FFD77A" opacity="0.76"/>
<ellipse cx="662.4" cy="373.0" rx="14.0" ry="4.4" fill="#02080B" opacity="0.26" filter="url(#soft)"/><polygon points="653.4,337.5 655.0,345.7 655.0,368.7 653.4,360.5" fill="#315A64"/><polygon points="655.0,345.7 671.4,346.4 671.4,369.4 655.0,368.7" fill="#254952"/><polygon points="653.4,337.5 669.8,338.3 671.4,346.4 655.0,345.7" fill="#4C8190" stroke="#79D1E3" stroke-opacity="0.25"/><rect x="654.4" y="353.5" width="4.4" height="3" rx="0.8" fill="#8FEAFF" opacity="0.76"/><rect x="659.5" y="356.0" width="4.4" height="3" rx="0.8" fill="#8FEAFF" opacity="0.76"/>
<ellipse cx="641.3" cy="375.3" rx="12.0" ry="3.6" fill="#02080B" opacity="0.26" filter="url(#soft)"/><polygon points="633.6,347.8 635.2,354.7 635.2,370.2 633.6,363.4" fill="#315A64"/><polygon points="635.2,354.7 649.0,355.5 649.0,371.1 635.2,370.2" fill="#254952"/><polygon points="633.6,347.8 647.4,348.6 649.0,355.5 635.2,354.7" fill="#4C8190" stroke="#79D1E3" stroke-opacity="0.25"/><rect x="632.3" y="358.0" width="4.4" height="3" rx="0.8" fill="#8FEAFF" opacity="0.76"/><rect x="636.4" y="360.1" width="4.4" height="3" rx="0.8" fill="#8FEAFF" opacity="0.76"/><rect x="640.5" y="362.1" width="4.4" height="3" rx="0.8" fill="#8FEAFF" opacity="0.76"/>
<polygon points="387.8,388.2 447.4,393.0 457.0,422.8 397.4,418.0" fill="#1B2E2D" opacity="0.92" stroke="#70857E" stroke-opacity="0.12"/>
<ellipse cx="414.7" cy="400.2" rx="13.0" ry="4.2" fill="#02080B" opacity="0.26" filter="url(#soft)"/><polygon points="406.4,369.6 407.7,377.3 407.7,395.7 406.4,388.0" fill="#345C54"/><polygon points="407.7,377.3 423.0,377.9 423.0,396.3 407.7,395.7" fill="#294B45"/><polygon points="406.4,369.6 421.8,370.2 423.0,377.9 407.7,377.3" fill="#4F7F73" stroke="#80DFC0" stroke-opacity="0.25"/><rect x="406.9" y="382.7" width="4.4" height="3" rx="0.8" fill="#8FEAFF" opacity="0.76"/><rect x="412.0" y="385.2" width="4.4" height="3" rx="0.8" fill="#8FEAFF" opacity="0.76"/>
<ellipse cx="432.0" cy="411.4" rx="14.0" ry="4.4" fill="#02080B" opacity="0.26" filter="url(#soft)"/><polygon points="423.0,375.9 424.6,384.1 424.6,407.1 423.0,398.9" fill="#345C54"/><polygon points="424.6,384.1 441.0,384.9 441.0,407.9 424.6,407.1" fill="#294B45"/><polygon points="423.0,375.9 439.4,376.7 441.0,384.9 424.6,384.1" fill="#4F7F73" stroke="#80DFC0" stroke-opacity="0.25"/><rect x="422.5" y="391.1" width="4.4" height="3" rx="0.8" fill="#FFD77A" opacity="0.76"/><rect x="426.6" y="393.1" width="4.4" height="3" rx="0.8" fill="#FFD77A" opacity="0.76"/><rect x="430.7" y="395.2" width="4.4" height="3" rx="0.8" fill="#FFD77A" opacity="0.76"/>
<ellipse cx="410.9" cy="413.7" rx="12.0" ry="3.6" fill="#02080B" opacity="0.26" filter="url(#soft)"/><polygon points="403.2,386.2 404.8,393.1 404.8,408.7 403.2,401.8" fill="#345C54"/><polygon points="404.8,393.1 418.6,393.9 418.6,409.4 404.8,408.7" fill="#294B45"/><polygon points="403.2,386.2 417.0,387.0 418.6,393.9 404.8,393.1" fill="#4F7F73" stroke="#80DFC0" stroke-opacity="0.25"/><rect x="403.4" y="397.2" width="4.4" height="3" rx="0.8" fill="#8FEAFF" opacity="0.76"/><rect x="408.6" y="399.7" width="4.4" height="3" rx="0.8" fill="#8FEAFF" opacity="0.76"/>
<polygon points="522.2,449.0 581.8,453.8 591.4,483.6 531.8,478.8" fill="#1B2E2D" opacity="0.92" stroke="#70857E" stroke-opacity="0.12"/>
<ellipse cx="549.1" cy="463.0" rx="16.0" ry="4.9" fill="#02080B" opacity="0.26" filter="url(#soft)"/><polygon points="538.9,436.0 540.8,445.2 540.8,459.0 538.9,449.8" fill="#4A3E36"/><polygon points="540.8,445.2 559.4,446.2 559.4,460.0 540.8,459.0" fill="#3B312C"/><polygon points="538.9,436.0 557.4,436.9 559.4,446.2 540.8,445.2" fill="#6D5A4C" stroke="#DEA16F" stroke-opacity="0.25"/><rect x="539.2" y="447.0" width="4.4" height="3" rx="0.8" fill="#8FEAFF" opacity="0.76"/><rect x="543.3" y="449.0" width="4.4" height="3" rx="0.8" fill="#8FEAFF" opacity="0.76"/><rect x="547.4" y="451.1" width="4.4" height="3" rx="0.8" fill="#8FEAFF" opacity="0.76"/>
<ellipse cx="561.3" cy="476.7" rx="15.0" ry="4.4" fill="#02080B" opacity="0.26" filter="url(#soft)"/><polygon points="551.7,447.2 553.9,455.7 553.9,472.3 551.7,463.9" fill="#4A3E36"/><polygon points="553.9,455.7 570.9,456.8 570.9,473.4 553.9,472.3" fill="#3B312C"/><polygon points="551.7,447.2 568.6,448.3 570.9,456.8 553.9,455.7" fill="#6D5A4C" stroke="#DEA16F" stroke-opacity="0.25"/><rect x="553.3" y="460.0" width="4.4" height="3" rx="0.8" fill="#8FEAFF" opacity="0.76"/><rect x="558.4" y="462.5" width="4.4" height="3" rx="0.8" fill="#8FEAFF" opacity="0.76"/>
<polygon points="637.4,461.8 697.0,466.6 706.6,496.4 647.0,491.6" fill="#1B2E2D" opacity="0.92" stroke="#70857E" stroke-opacity="0.12"/>
<ellipse cx="664.3" cy="475.8" rx="16.0" ry="4.9" fill="#02080B" opacity="0.26" filter="url(#soft)"/><polygon points="654.1,448.8 656.0,458.0 656.0,471.8 654.1,462.6" fill="#4A3E36"/><polygon points="656.0,458.0 674.6,459.0 674.6,472.8 656.0,471.8" fill="#3B312C"/><polygon points="654.1,448.8 672.6,449.7 674.6,459.0 656.0,458.0" fill="#6D5A4C" stroke="#DEA16F" stroke-opacity="0.25"/><rect x="655.9" y="460.5" width="4.4" height="3" rx="0.8" fill="#FFD77A" opacity="0.76"/><rect x="661.0" y="463.1" width="4.4" height="3" rx="0.8" fill="#FFD77A" opacity="0.76"/>
<ellipse cx="676.5" cy="489.5" rx="15.0" ry="4.4" fill="#02080B" opacity="0.26" filter="url(#soft)"/><polygon points="666.9,460.0 669.1,468.5 669.1,485.1 666.9,476.7" fill="#4A3E36"/><polygon points="669.1,468.5 686.1,469.6 686.1,486.2 669.1,485.1" fill="#3B312C"/><polygon points="666.9,460.0 683.8,461.1 686.1,469.6 669.1,468.5" fill="#6D5A4C" stroke="#DEA16F" stroke-opacity="0.25"/><rect x="666.9" y="472.0" width="4.4" height="3" rx="0.8" fill="#8FEAFF" opacity="0.76"/><rect x="671.0" y="474.1" width="4.4" height="3" rx="0.8" fill="#8FEAFF" opacity="0.76"/><rect x="675.1" y="476.1" width="4.4" height="3" rx="0.8" fill="#8FEAFF" opacity="0.76"/>
<rect x="460.0" y="234.9" width="1.6" height="6.0" fill="#4A382A" opacity="0.84"/><circle cx="460.8" cy="231.9" r="4.6" fill="#3D7B58" opacity="0.96"/><circle cx="458.6" cy="229.8" r="2.8" fill="#5C9A71" opacity="0.58"/>
<rect x="504.9" y="238.1" width="1.4" height="5.4" fill="#4A382A" opacity="0.84"/><circle cx="505.6" cy="235.5" r="4.1" fill="#3D7B58" opacity="0.96"/><circle cx="503.6" cy="233.6" r="2.5" fill="#5C9A71" opacity="0.58"/>
<rect x="645.6" y="244.5" width="1.6" height="6.0" fill="#4A382A" opacity="0.84"/><circle cx="646.4" cy="241.5" r="4.6" fill="#3D7B58" opacity="0.96"/><circle cx="644.2" cy="239.4" r="2.8" fill="#5C9A71" opacity="0.58"/>
<rect x="690.6" y="254.1" width="1.3" height="4.8" fill="#4A382A" opacity="0.84"/><circle cx="691.2" cy="251.9" r="3.7" fill="#3D7B58" opacity="0.96"/><circle cx="689.4" cy="250.2" r="2.2" fill="#5C9A71" opacity="0.58"/>
<rect x="799.2" y="321.3" width="1.6" height="6.0" fill="#4A382A" opacity="0.84"/><circle cx="800.0" cy="318.3" r="4.6" fill="#3D7B58" opacity="0.96"/><circle cx="797.8" cy="316.2" r="2.8" fill="#5C9A71" opacity="0.58"/>
<rect x="805.6" y="362.9" width="1.6" height="6.0" fill="#4A382A" opacity="0.84"/><circle cx="806.4" cy="359.9" r="4.6" fill="#3D7B58" opacity="0.96"/><circle cx="804.2" cy="357.8" r="2.8" fill="#5C9A71" opacity="0.58"/>
<rect x="837.7" y="455.7" width="1.4" height="5.4" fill="#4A382A" opacity="0.84"/><circle cx="838.4" cy="453.1" r="4.1" fill="#3D7B58" opacity="0.96"/><circle cx="836.4" cy="451.2" r="2.5" fill="#5C9A71" opacity="0.58"/>
<rect x="812.2" y="487.7" width="1.3" height="4.8" fill="#4A382A" opacity="0.84"/><circle cx="812.8" cy="485.5" r="3.7" fill="#3D7B58" opacity="0.96"/><circle cx="811.0" cy="483.8" r="2.2" fill="#5C9A71" opacity="0.58"/>
<rect x="722.4" y="532.5" width="1.6" height="6.0" fill="#4A382A" opacity="0.84"/><circle cx="723.2" cy="529.5" r="4.6" fill="#3D7B58" opacity="0.96"/><circle cx="721.0" cy="527.4" r="2.8" fill="#5C9A71" opacity="0.58"/>
<rect x="549.6" y="574.1" width="1.6" height="6.0" fill="#4A382A" opacity="0.84"/><circle cx="550.4" cy="571.1" r="4.6" fill="#3D7B58" opacity="0.96"/><circle cx="548.2" cy="569.0" r="2.8" fill="#5C9A71" opacity="0.58"/>
<rect x="434.5" y="542.1" width="1.4" height="5.4" fill="#4A382A" opacity="0.84"/><circle cx="435.2" cy="539.5" r="4.1" fill="#3D7B58" opacity="0.96"/><circle cx="433.2" cy="537.6" r="2.5" fill="#5C9A71" opacity="0.58"/>
<rect x="248.8" y="455.7" width="1.6" height="6.0" fill="#4A382A" opacity="0.84"/><circle cx="249.6" cy="452.7" r="4.6" fill="#3D7B58" opacity="0.96"/><circle cx="247.4" cy="450.6" r="2.8" fill="#5C9A71" opacity="0.58"/>
<rect x="204.1" y="375.7" width="1.4" height="5.4" fill="#4A382A" opacity="0.84"/><circle cx="204.8" cy="373.1" r="4.1" fill="#3D7B58" opacity="0.96"/><circle cx="202.8" cy="371.2" r="2.5" fill="#5C9A71" opacity="0.58"/>
<rect x="268.0" y="305.3" width="1.6" height="6.0" fill="#4A382A" opacity="0.84"/><circle cx="268.8" cy="302.3" r="4.6" fill="#3D7B58" opacity="0.96"/><circle cx="266.6" cy="300.2" r="2.8" fill="#5C9A71" opacity="0.58"/>
<rect x="569.0" y="334.1" width="1.3" height="4.8" fill="#4A382A" opacity="0.84"/><circle cx="569.6" cy="331.9" r="3.7" fill="#3D7B58" opacity="0.96"/><circle cx="567.8" cy="330.2" r="2.2" fill="#5C9A71" opacity="0.58"/>
<rect x="632.9" y="378.9" width="1.4" height="5.4" fill="#4A382A" opacity="0.84"/><circle cx="633.6" cy="376.3" r="4.1" fill="#3D7B58" opacity="0.96"/><circle cx="631.6" cy="374.4" r="2.5" fill="#5C9A71" opacity="0.58"/>
<rect x="620.2" y="334.1" width="1.3" height="4.8" fill="#4A382A" opacity="0.84"/><circle cx="620.8" cy="331.9" r="3.7" fill="#3D7B58" opacity="0.96"/><circle cx="619.0" cy="330.2" r="2.2" fill="#5C9A71" opacity="0.58"/>
<rect x="588.2" y="375.7" width="1.3" height="4.8" fill="#4A382A" opacity="0.84"/><circle cx="588.8" cy="373.5" r="3.7" fill="#3D7B58" opacity="0.96"/><circle cx="587.0" cy="371.8" r="2.2" fill="#5C9A71" opacity="0.58"/>
<rect x="415.4" y="385.3" width="1.3" height="4.8" fill="#4A382A" opacity="0.84"/><circle cx="416.0" cy="383.1" r="3.7" fill="#3D7B58" opacity="0.96"/><circle cx="414.2" cy="381.4" r="2.2" fill="#5C9A71" opacity="0.58"/>
<rect x="517.8" y="449.3" width="1.3" height="4.8" fill="#4A382A" opacity="0.84"/><circle cx="518.4" cy="447.1" r="3.7" fill="#3D7B58" opacity="0.96"/><circle cx="516.6" cy="445.4" r="2.2" fill="#5C9A71" opacity="0.58"/>
</svg>