<svg xmlns="http://www.w3.org/2000/svg" width="1024" height="768" viewBox="0 0 1024 768"><defs>
<linearGradient id="land" x1="230" y1="170" x2="810" y2="650"><stop stop-color="#24483f"/><stop offset=".55" stop-color="#17332f"/><stop offset="1" stop-color="#0d2422"/></linearGradient>
<linearGradient id="water" x1="0" y1="0" x2="800" y2="700"><stop stop-color="#0b3347"/><stop offset="1" stop-color="#041824"/></linearGradient>
<linearGradient id="road" x1="280" y1="250" x2="760" y2="560"><stop stop-color="#3c5055"/><stop offset="1" stop-color="#202c31"/></linearGradient>
<radialGradient id="glow"><stop stop-color="#42c7dc" stop-opacity=".16"/><stop offset="1" stop-color="#42c7dc" stop-opacity="0"/></radialGradient>
<style>.r-o{fill:none;stroke:#071014;stroke-linecap:round;stroke-linejoin:round;opacity:.96}.r-s{fill:none;stroke:url(#road);stroke-linecap:round;stroke-linejoin:round}.r-c{fill:none;stroke:#ddbf62;stroke-linecap:round;stroke-dasharray:8 7;opacity:.3}.w{fill:#ffd77a}.c{fill:#75d7e8}</style>
<g id="tree"><ellipse cy="2" rx="5" ry="2.2" fill="#06120e" opacity=".35"/><rect x="-1" y="-6" width="2" height="8" fill="#382d23"/><circle cy="-8" r="5.2" fill="#2f6950"/><circle cx="-2" cy="-10" r="3.4" fill="#468662" opacity=".85"/></g>
<g id="b-res"><polygon points="-9,-25 0,-20 0,0 -9,-5" fill="#173743"/><polygon points="9,-25 0,-20 0,0 9,-5" fill="#235667"/><polygon points="0,-30 9,-25 0,-20 -9,-25" fill="#4f9ab0"/><rect class="w" x="-6" y="-19" width="2" height="2"/><rect class="c" x="-3" y="-14" width="2" height="2"/><rect class="w" x="3" y="-17" width="2" height="2"/></g>
<g id="b-com"><polygon points="-10,-31 0,-25 0,0 -10,-6" fill="#1a3348"/><polygon points="10,-31 0,-25 0,0 10,-6" fill="#275575"/><polygon points="0,-37 10,-31 0,-25 -10,-31" fill="#6bc2df"/><rect class="w" x="-7" y="-24" width="2" height="2"/><rect class="c" x="-4" y="-17" width="2" height="2"/><rect class="w" x="4" y="-22" width="2" height="2"/><rect class="c" x="2" y="-13" width="2" height="2"/></g>
<g id="b-ind"><polygon points="-12,-17 0,-12 0,0 -12,-5" fill="#342f2c"/><polygon points="12,-17 0,-12 0,0 12,-5" fill="#5a4135"/><polygon points="0,-22 12,-17 0,-12 -12,-17" fill="#b2724e"/><rect class="w" x="-8" y="-11" width="3" height="2"/><rect class="c" x="4" y="-10" width="3" height="2"/></g>
<g id="b-civic"><polygon points="-11,-22 0,-17 0,0 -11,-5" fill="#203f43"/><polygon points="11,-22 0,-17 0,0 11,-5" fill="#356a69"/><polygon points="0,-27 11,-22 0,-17 -11,-22" fill="#78b9a5"/><rect class="w" x="-7" y="-14" width="2" height="2"/><rect class="c" x="4" y="-13" width="2" height="2"/></g>
<g id="b-old"><polygon points="-9,-19 0,-14 0,0 -9,-5" fill="#302c31"/><polygon points="9,-19 0,-14 0,0 9,-5" fill="#4c3b45"/><polygon points="0,-24 9,-19 0,-14 -9,-19" fill="#9a6c6f"/><rect class="w" x="-6" y="-11" width="2" height="2"/><rect class="c" x="3" y="-10" width="2" height="2"/></g>
</defs><rect width="1024" height="768" fill="#06141c"/><path d="M0 95C180 45 310 65 430 120C540 170 610 145 740 110C875 74 975 112 1024 155V768H0Z" fill="url(#water)"/><polygon points="364.8,156.8 524.8,153.6 697.6,201.6 857.6,288.0 953.6,400.0 915.2,502.4 729.6,595.2 524.8,620.8 300.8,572.8 140.8,473.6 89.6,358.4 153.6,256.0" fill="#071313" opacity=".65" transform="translate(0 9)"/><polygon points="364.8,156.8 524.8,153.6 697.6,201.6 857.6,288.0 953.6,400.0 915.2,502.4 729.6,595.2 524.8,620.8 300.8,572.8 140.8,473.6 89.6,358.4 153.6,256.0" fill="url(#land)" stroke="#44736b" stroke-opacity=".4" stroke-width="2"/><polyline points="364.8,156.8 524.8,153.6 697.6,201.6 857.6,288.0 953.6,400.0 915.2,502.4" fill="none" stroke="#6cb0bc" stroke-opacity=".22" stroke-width="3"/><polygon points="793.6,249.6 896.0,307.2 940.8,406.4 883.2,467.2 793.6,396.8" fill="#17322f" opacity="0.95"/><polygon points="812.8,272.0 889.6,329.6 908.8,409.6 876.8,438.4 800.0,380.8" fill="#27493f" opacity="0.75"/><polygon points="883.2,390.4 902.4,502.4 742.4,576.0 723.2,521.6 774.4,425.6" fill="#1a3531" opacity="0.9"/><ellipse cx="520" cy="410" rx="330" ry="210" fill="url(#glow)"/><polygon points="588.8,217.6 748.8,278.4 736.0,348.8 576.0,313.6 505.6,240.0" fill="#24453f" opacity=".7" stroke="#6f8c84" stroke-opacity=".12"/><polygon points="403.2,259.2 537.6,307.2 505.6,374.4 345.6,371.2 288.0,291.2" fill="#203b43" opacity=".7" stroke="#6f8c84" stroke-opacity=".12"/><polygon points="627.2,332.8 774.4,393.6 742.4,473.6 576.0,454.4 524.8,364.8" fill="#343632" opacity=".7" stroke="#6f8c84" stroke-opacity=".12"/><polygon points="371.2,345.6 518.4,406.4 473.6,486.4 300.8,470.4 243.2,371.2" fill="#264743" opacity=".7" stroke="#6f8c84" stroke-opacity=".12"/><polygon points="563.2,435.2 716.8,505.6 652.8,582.4 486.4,576.0 435.2,473.6" fill="#322e31" opacity=".7" stroke="#6f8c84" stroke-opacity=".12"/><path d="M358.4 249.6 L416.0 291.2 L486.4 339.2 L582.4 380.8 L659.2 425.6 L723.2 496.0" class="r-o" stroke-width="24"/><path d="M358.4 249.6 L416.0 291.2 L486.4 339.2 L582.4 380.8 L659.2 425.6 L723.2 496.0" class="r-s" stroke-width="17"/><path d="M358.4 249.6 L416.0 291.2 L486.4 339.2 L582.4 380.8 L659.2 425.6 L723.2 496.0" class="r-c" stroke-width="1.1"/><path d="M160.0 323.2 L268.8 358.4 L371.2 396.8 L454.4 444.8 L531.2 496.0 L640.0 544.0" class="r-o" stroke-width="24"/><path d="M160.0 323.2 L268.8 358.4 L371.2 396.8 L454.4 444.8 L531.2 496.0 L640.0 544.0" class="r-s" stroke-width="17"/><path d="M160.0 323.2 L268.8 358.4 L371.2 396.8 L454.4 444.8 L531.2 496.0 L640.0 544.0" class="r-c" stroke-width="1.1"/><path d="M396.8 281.6 L480.0 272.0 L576.0 275.2 L678.4 307.2 L736.0 355.2 L774.4 406.4" class="r-o" stroke-width="14"/><path d="M396.8 281.6 L480.0 272.0 L576.0 275.2 L678.4 307.2 L736.0 355.2 L774.4 406.4" class="r-s" stroke-width="9"/><path d="M396.8 281.6 L480.0 272.0 L576.0 275.2 L678.4 307.2 L736.0 355.2 L774.4 406.4" class="r-c" stroke-width="0.7"/><path d="M422.4 352.0 L403.2 387.2 L396.8 428.8 L396.8 467.2" class="r-o" stroke-width="14"/><path d="M422.4 352.0 L403.2 387.2 L396.8 428.8 L396.8 467.2" class="r-s" stroke-width="9"/><path d="M422.4 352.0 L403.2 387.2 L396.8 428.8 L396.8 467.2" class="r-c" stroke-width="0.7"/><path d="M736.0 374.4 L672.0 400.0 L614.4 428.8 L614.4 480.0 L614.4 531.2" class="r-o" stroke-width="14"/><path d="M736.0 374.4 L672.0 400.0 L614.4 428.8 L614.4 480.0 L614.4 531.2" class="r-s" stroke-width="9"/><path d="M736.0 374.4 L672.0 400.0 L614.4 428.8 L614.4 480.0 L614.4 531.2" class="r-c" stroke-width="0.7"/><path d="M294.4 300.8 L371.2 332.8 L467.2 361.6 L537.6 403.2 L582.4 451.2" class="r-o" stroke-width="14"/><path d="M294.4 300.8 L371.2 332.8 L467.2 361.6 L537.6 403.2 L582.4 451.2" class="r-s" stroke-width="9"/><path d="M294.4 300.8 L371.2 332.8 L467.2 361.6 L537.6 403.2 L582.4 451.2" class="r-c" stroke-width="0.7"/><path d="M646.4 284.8 L563.2 326.4 L492.8 361.6 L422.4 403.2 L345.6 448.0" class="r-o" stroke-width="14"/><path d="M646.4 284.8 L563.2 326.4 L492.8 361.6 L422.4 403.2 L345.6 448.0" class="r-s" stroke-width="9"/><path d="M646.4 284.8 L563.2 326.4 L492.8 361.6 L422.4 403.2 L345.6 448.0" class="r-c" stroke-width="0.7"/><path d="M582.4 380.8 L659.2 374.4 L736.0 380.8 L812.8 400.0" class="r-o" stroke-width="14"/><path d="M582.4 380.8 L659.2 374.4 L736.0 380.8 L812.8 400.0" class="r-s" stroke-width="9"/><path d="M582.4 380.8 L659.2 374.4 L736.0 380.8 L812.8 400.0" class="r-c" stroke-width="0.7"/><path d="M281.6 364.8 L358.4 358.4 L422.4 352.0" class="r-o" stroke-width="14"/><path d="M281.6 364.8 L358.4 358.4 L422.4 352.0" class="r-s" stroke-width="9"/><path d="M281.6 364.8 L358.4 358.4 L422.4 352.0" class="r-c" stroke-width="0.7"/><path d="M160.0 259.2 L230.4 294.4 L320.0 320.0" class="r-o" stroke-width="14"/><path d="M160.0 259.2 L230.4 294.4 L320.0 320.0" class="r-s" stroke-width="9"/><path d="M160.0 259.2 L230.4 294.4 L320.0 320.0" class="r-c" stroke-width="0.7"/><polygon points="556.8,304.0 620.8,323.2 614.4,358.4 544.0,355.2 512.0,320.0" fill="#24503c" opacity=".9" stroke="#63a078" stroke-opacity=".2"/><polygon points="364.8,400.0 435.2,422.4 428.8,457.6 352.0,451.2 320.0,416.0" fill="#24503c" opacity=".9" stroke="#63a078" stroke-opacity=".2"/><use href="#b-res" transform="translate(480.0 227.2) scale(0.73)"/><use href="#b-res" transform="translate(503.7 239.0) scale(0.92)"/><use href="#b-res" transform="translate(527.4 250.9) scale(0.91)"/><use href="#b-res" transform="translate(551.0 262.7) scale(1.00)"/><use href="#b-res" transform="translate(464.0 239.7) scale(0.78)"/><use href="#b-res" transform="translate(487.7 251.5) scale(0.78)"/><use href="#b-res" transform="translate(511.4 263.4) scale(0.93)"/><use href="#b-res" transform="translate(535.0 275.2) scale(0.91)"/><use href="#b-res" transform="translate(439.0 247.7) scale(0.79)"/><use href="#b-res" transform="translate(462.7 259.5) scale(0.92)"/><use href="#b-res" transform="translate(486.4 271.4) scale(0.83)"/><use href="#b-res" transform="translate(510.1 283.2) scale(0.95)"/><use href="#b-res" transform="translate(627.2 230.4) scale(0.86)"/><use href="#b-res" transform="translate(649.6 241.6) scale(0.90)"/><use href="#b-res" transform="translate(672.0 252.8) scale(1.16)"/><use href="#b-res" transform="translate(694.4 264.0) scale(0.96)"/><use href="#b-res" transform="translate(716.8 275.2) scale(0.92)"/><use href="#b-res" transform="translate(611.2 242.9) scale(1.13)"/><use href="#b-res" transform="translate(736.0 291.2) scale(1.08)"/><use href="#b-res" transform="translate(760.3 303.4) scale(0.89)"/><use href="#b-res" transform="translate(784.6 315.5) scale(1.05)"/><use href="#b-res" transform="translate(809.0 327.7) scale(1.09)"/><use href="#b-res" transform="translate(744.3 315.8) scale(0.90)"/><use href="#b-res" transform="translate(768.6 328.0) scale(1.09)"/><use href="#b-res" transform="translate(793.0 340.2) scale(0.88)"/><use href="#b-com" transform="translate(339.2 278.4) scale(0.74)"/><use href="#b-com" transform="translate(361.6 289.6) scale(0.66)"/><use href="#b-com" transform="translate(322.6 291.2) scale(0.70)"/><use href="#b-com" transform="translate(345.0 302.4) scale(0.93)"/><use href="#b-com" transform="translate(297.0 299.5) scale(0.76)"/><use href="#b-com" transform="translate(319.4 310.7) scale(0.93)"/><use href="#b-com" transform="translate(512.0 320.0) scale(0.91)"/><use href="#b-com" transform="translate(533.8 330.9) scale(0.97)"/><use href="#b-com" transform="translate(555.5 341.8) scale(1.06)"/><use href="#b-com" transform="translate(577.3 352.6) scale(0.99)"/><use href="#b-com" transform="translate(517.8 343.4) scale(0.79)"/><use href="#b-com" transform="translate(539.5 354.2) scale(0.96)"/><use href="#b-com" transform="translate(561.3 365.1) scale(0.98)"/><use href="#b-com" transform="translate(514.6 362.2) scale(0.82)"/><use href="#b-com" transform="translate(536.3 373.1) scale(0.79)"/><use href="#b-com" transform="translate(531.2 374.4) scale(1.24)"/><use href="#b-com" transform="translate(553.6 385.6) scale(1.10)"/><use href="#b-com" transform="translate(514.6 387.2) scale(0.97)"/><use href="#b-com" transform="translate(537.0 398.4) scale(1.07)"/><use href="#b-com" transform="translate(489.0 395.5) scale(0.98)"/><use href="#b-com" transform="translate(511.4 406.7) scale(1.21)"/><use href="#b-ind" transform="translate(678.4 364.8) scale(0.91)"/><use href="#b-ind" transform="translate(702.7 377.0) scale(0.77)"/><use href="#b-ind" transform="translate(727.0 389.1) scale(1.02)"/><use href="#b-ind" transform="translate(660.5 378.2) scale(0.77)"/><use href="#b-ind" transform="translate(684.8 390.4) scale(0.83)"/><use href="#b-ind" transform="translate(709.1 402.6) scale(0.75)"/><use href="#b-ind" transform="translate(733.4 414.7) scale(0.99)"/><use href="#b-ind" transform="translate(633.6 387.2) scale(0.78)"/><use href="#b-ind" transform="translate(657.9 399.4) scale(0.92)"/><use href="#b-ind" transform="translate(682.2 411.5) scale(0.77)"/><use href="#b-ind" transform="translate(706.6 423.7) scale(0.90)"/><use href="#b-ind" transform="translate(736.0 425.6) scale(0.91)"/><use href="#b-ind" transform="translate(760.3 437.8) scale(0.86)"/><use href="#b-ind" transform="translate(784.6 449.9) scale(0.83)"/><use href="#b-ind" transform="translate(809.0 462.1) scale(0.84)"/><use href="#b-ind" transform="translate(742.4 451.2) scale(0.83)"/><use href="#b-ind" transform="translate(766.7 463.4) scale(0.88)"/><use href="#b-ind" transform="translate(791.0 475.5) scale(0.72)"/><use href="#b-ind" transform="translate(715.5 460.2) scale(0.84)"/><use href="#b-ind" transform="translate(739.8 472.3) scale(0.76)"/><use href="#b-ind" transform="translate(764.2 484.5) scale(0.97)"/><use href="#b-civic" transform="translate(291.2 358.1) scale(0.96)"/><use href="#b-civic" transform="translate(313.6 369.3) scale(0.69)"/><use href="#b-civic" transform="translate(336.0 380.5) scale(0.72)"/><use href="#b-civic" transform="translate(358.4 391.7) scale(0.89)"/><use href="#b-civic" transform="translate(266.2 366.1) scale(0.85)"/><use href="#b-civic" transform="translate(288.6 377.3) scale(0.68)"/><use href="#b-civic" transform="translate(311.0 388.5) scale(0.89)"/><use href="#b-civic" transform="translate(333.4 399.7) scale(0.97)"/><use href="#b-civic" transform="translate(467.2 419.2) scale(0.88)"/><use href="#b-civic" transform="translate(490.2 430.7) scale(0.86)"/><use href="#b-civic" transform="translate(513.3 442.2) scale(0.93)"/><use href="#b-civic" transform="translate(536.3 453.8) scale(1.06)"/><use href="#b-civic" transform="translate(450.6 432.0) scale(0.83)"/><use href="#b-civic" transform="translate(473.6 443.5) scale(0.84)"/><use href="#b-civic" transform="translate(496.6 455.0) scale(0.80)"/><use href="#b-civic" transform="translate(519.7 466.6) scale(0.95)"/><use href="#b-civic" transform="translate(471.0 463.4) scale(0.90)"/><use href="#b-civic" transform="translate(494.1 474.9) scale(0.83)"/><use href="#b-old" transform="translate(544.0 470.4) scale(0.85)"/><use href="#b-old" transform="translate(566.4 481.6) scale(0.73)"/><use href="#b-old" transform="translate(588.8 492.8) scale(0.83)"/><use href="#b-old" transform="translate(611.2 504.0) scale(1.05)"/><use href="#b-old" transform="translate(528.0 482.9) scale(0.92)"/><use href="#b-old" transform="translate(550.4 494.1) scale(0.82)"/><use href="#b-old" transform="translate(503.0 490.9) scale(1.03)"/><use href="#b-old" transform="translate(525.4 502.1) scale(0.84)"/><use href="#b-old" transform="translate(640.0 512.0) scale(0.75)"/><use href="#b-old" transform="translate(661.8 522.9) scale(0.68)"/><use href="#b-old" transform="translate(683.5 533.8) scale(0.72)"/><ellipse cx="448.0" cy="409.6" rx="18" ry="8" fill="#16343a" stroke="#7ad8df" stroke-opacity=".32"/><ellipse cx="448.0" cy="408.6" rx="7" ry="3" fill="#4db3c8" opacity=".55"/><use href="#tree" transform="translate(460.8 192.0) scale(0.84)"/><use href="#tree" transform="translate(512.0 192.0) scale(0.85)"/><use href="#tree" transform="translate(588.8 198.4) scale(1.14)"/><use href="#tree" transform="translate(851.2 329.6) scale(0.87)"/><use href="#tree" transform="translate(889.6 432.0) scale(0.86)"/><use href="#tree" transform="translate(825.6 496.0) scale(1.02)"/><use href="#tree" transform="translate(736.0 553.6) scale(1.16)"/><use href="#tree" transform="translate(576.0 595.2) scale(0.88)"/><use href="#tree" transform="translate(390.4 566.4) scale(1.09)"/><use href="#tree" transform="translate(217.6 480.0) scale(0.92)"/><use href="#tree" transform="translate(153.6 371.2) scale(1.00)"/><use href="#tree" transform="translate(192.0 294.4) scale(1.02)"/><use href="#tree" transform="translate(384.0 224.0) scale(1.17)"/><use href="#tree" transform="translate(550.4 313.6) scale(1.09)"/><use href="#tree" transform="translate(601.6 345.6) scale(0.98)"/><use href="#tree" transform="translate(352.0 419.2) scale(1.13)"/><use href="#tree" transform="translate(409.6 441.6) scale(0.91)"/><use href="#tree" transform="translate(460.8 473.6) scale(0.92)"/><circle cx="409.6" cy="285.0" r="2.2" fill="#ffd875" opacity=".78"/><circle cx="409.6" cy="285.0" r="6" fill="#ffd875" opacity=".06"/><circle cx="448.0" cy="310.6" r="2.2" fill="#ffd875" opacity=".78"/><circle cx="448.0" cy="310.6" r="6" fill="#ffd875" opacity=".06"/><circle cx="499.2" cy="342.6" r="2.2" fill="#ffd875" opacity=".78"/><circle cx="499.2" cy="342.6" r="6" fill="#ffd875" opacity=".06"/><circle cx="563.2" cy="368.2" r="2.2" fill="#ffd875" opacity=".78"/><circle cx="563.2" cy="368.2" r="6" fill="#ffd875" opacity=".06"/><circle cx="620.8" cy="403.4" r="2.2" fill="#ffd875" opacity=".78"/><circle cx="620.8" cy="403.4" r="6" fill="#ffd875" opacity=".06"/><circle cx="678.4" cy="445.0" r="2.2" fill="#ffd875" opacity=".78"/><circle cx="678.4" cy="445.0" r="6" fill="#ffd875" opacity=".06"/><circle cx="249.6" cy="352.2" r="2.2" fill="#ffd875" opacity=".78"/><circle cx="249.6" cy="352.2" r="6" fill="#ffd875" opacity=".06"/><circle cx="332.8" cy="381.0" r="2.2" fill="#ffd875" opacity=".78"/><circle cx="332.8" cy="381.0" r="6" fill="#ffd875" opacity=".06"/><circle cx="409.6" cy="413.0" r="2.2" fill="#ffd875" opacity=".78"/><circle cx="409.6" cy="413.0" r="6" fill="#ffd875" opacity=".06"/><circle cx="473.6" cy="451.4" r="2.2" fill="#ffd875" opacity=".78"/><circle cx="473.6" cy="451.4" r="6" fill="#ffd875" opacity=".06"/><circle cx="544.0" cy="499.4" r="2.2" fill="#ffd875" opacity=".78"/><circle cx="544.0" cy="499.4" r="6" fill="#ffd875" opacity=".06"/><circle cx="480.0" cy="269.0" r="2.2" fill="#ffd875" opacity=".78"/><circle cx="480.0" cy="269.0" r="6" fill="#ffd875" opacity=".06"/><circle cx="576.0" cy="278.6" r="2.2" fill="#ffd875" opacity=".78"/><circle cx="576.0" cy="278.6" r="6" fill="#ffd875" opacity=".06"/><circle cx="684.8" cy="307.4" r="2.2" fill="#ffd875" opacity=".78"/><circle cx="684.8" cy="307.4" r="6" fill="#ffd875" opacity=".06"/><circle cx="742.4" cy="361.8" r="2.2" fill="#ffd875" opacity=".78"/><circle cx="742.4" cy="361.8" r="6" fill="#ffd875" opacity=".06"/><circle cx="409.6" cy="381.0" r="2.2" fill="#ffd875" opacity=".78"/><circle cx="409.6" cy="381.0" r="6" fill="#ffd875" opacity=".06"/><circle cx="396.8" cy="425.8" r="2.2" fill="#ffd875" opacity=".78"/><circle cx="396.8" cy="425.8" r="6" fill="#ffd875" opacity=".06"/><circle cx="672.0" cy="397.0" r="2.2" fill="#ffd875" opacity=".78"/><circle cx="672.0" cy="397.0" r="6" fill="#ffd875" opacity=".06"/><circle cx="614.4" cy="470.6" r="2.2" fill="#ffd875" opacity=".78"/><circle cx="614.4" cy="470.6" r="6" fill="#ffd875" opacity=".06"/></svg>