<svg xmlns="http://www.w3.org/2000/svg" width="1024" height="768" viewBox="0 0 1024 768" fill="none">
  <defs>
    <linearGradient id="ground" x1="240" y1="330" x2="760" y2="690" gradientUnits="userSpaceOnUse">
      <stop stop-color="#244C48"/>
      <stop offset="1" stop-color="#112825"/>
    </linearGradient>
    <linearGradient id="road" x1="300" y1="390" x2="720" y2="630" gradientUnits="userSpaceOnUse">
      <stop stop-color="#3A4B50"/>
      <stop offset="1" stop-color="#1B292E"/>
    </linearGradient>
    <linearGradient id="cyanFace" x1="0" y1="0" x2="1" y2="1">
      <stop stop-color="#2A7892"/>
      <stop offset="1" stop-color="#123845"/>
    </linearGradient>
    <filter id="glow" x="-80%" y="-80%" width="260%" height="260%">
      <feGaussianBlur stdDeviation="9" result="blur"/>
      <feMerge><feMergeNode in="blur"/><feMergeNode in="SourceGraphic"/></feMerge>
    </filter>
    <filter id="soft" x="-40%" y="-40%" width="180%" height="180%">
      <feGaussianBlur stdDeviation="16"/>
    </filter>
  </defs>
<ellipse cx="512" cy="640" rx="260" ry="70" fill="#02080A" opacity="0.52" filter="url(#soft)"/>
<polygon points="512,405 812,555 512,705 212,555" fill="#21463F" stroke="#3E8179" opacity="0.98"/>
<g transform="translate(360 545) scale(1.0)"><rect x="-7" y="-180" width="14" height="190" rx="7" fill="#C8E4E8" opacity="0.95"/><circle cx="0" cy="-180" r="14" fill="#55DEFF"/><path d="M0 -180L0 -285M0 -180L91 -127M0 -180L-91 -127" stroke="#E5F7F8" stroke-width="10" stroke-linecap="round" opacity="0.98"/></g>
<g transform="translate(515 470) scale(1.2)"><rect x="-7" y="-180" width="14" height="190" rx="7" fill="#C8E4E8" opacity="0.95"/><circle cx="0" cy="-180" r="14" fill="#55DEFF"/><path d="M0 -180L0 -285M0 -180L91 -127M0 -180L-91 -127" stroke="#E5F7F8" stroke-width="10" stroke-linecap="round" opacity="0.98"/></g>
<g transform="translate(670 555) scale(0.95)"><rect x="-7" y="-180" width="14" height="190" rx="7" fill="#C8E4E8" opacity="0.95"/><circle cx="0" cy="-180" r="14" fill="#55DEFF"/><path d="M0 -180L0 -285M0 -180L91 -127M0 -180L-91 -127" stroke="#E5F7F8" stroke-width="10" stroke-linecap="round" opacity="0.98"/></g>
<ellipse cx="512" cy="535" rx="235" ry="112" stroke="#55DEFF" stroke-width="4" opacity="0.24" filter="url(#glow)"/>
</svg>
