<svg xmlns="http://www.w3.org/2000/svg" width="1024" height="768" viewBox="0 0 1024 768" fill="none"><defs>
<linearGradient id="lot" x1="250" y1="450" x2="760" y2="700"><stop stop-color="#294a45"/><stop offset="1" stop-color="#122b28"/></linearGradient>
<filter id="soft"><feGaussianBlur stdDeviation="10"/></filter>
<style>.cyan{fill:#77d9eb}.warm{fill:#ffd77a}.off{fill:#32434b}</style>
</defs><ellipse cx="512" cy="648" rx="265" ry="62" fill="#02080b" opacity=".42" filter="url(#soft)"/><polygon points="512,405 790,548 512,690 234,548" fill="url(#lot)" opacity=".82" stroke="#4b8076" stroke-opacity=".35"/><path d="M285 558L500 449L742 571" stroke="#10191d" stroke-width="34" stroke-linecap="round"/><path d="M285 558L500 449L742 571" stroke="#34464b" stroke-width="22" stroke-linecap="round" opacity=".88"/><polygon points="405.0,436.0 500,475 500,620 405.0,581.0" fill="#214247"/><polygon points="595.0,436.0 500,475 500,620 595.0,581.0" fill="#376b68"/><polygon points="405.0,436.0 500,397 595.0,436.0 500,475" fill="#7cbba5" stroke="#a4edf4" stroke-opacity=".12"/><rect x="438.0" y="484.9" width="10" height="6" rx="1.4" fill="#79dced" opacity="0.92"/><rect x="552.0" y="484.9" width="10" height="6" rx="1.4" fill="#79dced" opacity="0.76"/><rect x="457.0" y="492.6" width="10" height="6" rx="1.4" fill="#79dced" opacity="0.92"/><rect x="533.0" y="492.6" width="10" height="6" rx="1.4" fill="#79dced" opacity="0.76"/><rect x="476.0" y="500.4" width="10" height="6" rx="1.4" fill="#79dced" opacity="0.92"/><rect x="514.0" y="500.4" width="10" height="6" rx="1.4" fill="#79dced" opacity="0.76"/><rect x="419.0" y="513.3" width="10" height="6" rx="1.4" fill="#79dced" opacity="0.92"/><rect x="571.0" y="513.3" width="10" height="6" rx="1.4" fill="#79dced" opacity="0.76"/><rect x="438.0" y="521.1" width="10" height="6" rx="1.4" fill="#79dced" opacity="0.92"/><rect x="552.0" y="521.1" width="10" height="6" rx="1.4" fill="#79dced" opacity="0.76"/><rect x="457.0" y="528.9" width="10" height="6" rx="1.4" fill="#ffd77a" opacity="0.92"/><rect x="533.0" y="528.9" width="10" height="6" rx="1.4" fill="#ffd77a" opacity="0.76"/><rect x="476.0" y="536.7" width="10" height="6" rx="1.4" fill="#ffd77a" opacity="0.92"/><rect x="514.0" y="536.7" width="10" height="6" rx="1.4" fill="#ffd77a" opacity="0.76"/><rect x="438.0" y="557.4" width="10" height="6" rx="1.4" fill="#ffd77a" opacity="0.92"/><rect x="552.0" y="557.4" width="10" height="6" rx="1.4" fill="#ffd77a" opacity="0.76"/><rect x="457.0" y="565.1" width="10" height="6" rx="1.4" fill="#ffd77a" opacity="0.92"/><rect x="533.0" y="565.1" width="10" height="6" rx="1.4" fill="#ffd77a" opacity="0.76"/><polygon points="282.5,546.0 340,572 340,660 282.5,634.0" fill="#214247"/><polygon points="397.5,546.0 340,572 340,660 397.5,634.0" fill="#376b68"/><polygon points="282.5,546.0 340,520 397.5,546.0 340,572" fill="#7cbba5" stroke="#a4edf4" stroke-opacity=".12"/><rect x="291.9" y="578.8" width="10" height="6" rx="1.4" fill="#79dced" opacity="0.92"/><rect x="378.1" y="578.8" width="10" height="6" rx="1.4" fill="#79dced" opacity="0.76"/><rect x="306.2" y="585.3" width="10" height="6" rx="1.4" fill="#79dced" opacity="0.92"/><rect x="363.8" y="585.3" width="10" height="6" rx="1.4" fill="#79dced" opacity="0.76"/><rect x="306.2" y="614.7" width="10" height="6" rx="1.4" fill="#ffd77a" opacity="0.92"/><rect x="363.8" y="614.7" width="10" height="6" rx="1.4" fill="#ffd77a" opacity="0.76"/><rect x="320.6" y="621.2" width="10" height="6" rx="1.4" fill="#ffd77a" opacity="0.92"/><rect x="349.4" y="621.2" width="10" height="6" rx="1.4" fill="#ffd77a" opacity="0.76"/><polygon points="617.5,546.0 675,572 675,660 617.5,634.0" fill="#214247"/><polygon points="732.5,546.0 675,572 675,660 732.5,634.0" fill="#376b68"/><polygon points="617.5,546.0 675,520 732.5,546.0 675,572" fill="#7cbba5" stroke="#a4edf4" stroke-opacity=".12"/><rect x="626.9" y="578.8" width="10" height="6" rx="1.4" fill="#79dced" opacity="0.92"/><rect x="713.1" y="578.8" width="10" height="6" rx="1.4" fill="#79dced" opacity="0.76"/><rect x="655.6" y="591.8" width="10" height="6" rx="1.4" fill="#79dced" opacity="0.92"/><rect x="684.4" y="591.8" width="10" height="6" rx="1.4" fill="#79dced" opacity="0.76"/><rect x="626.9" y="608.2" width="10" height="6" rx="1.4" fill="#79dced" opacity="0.92"/><rect x="713.1" y="608.2" width="10" height="6" rx="1.4" fill="#79dced" opacity="0.76"/><rect x="655.6" y="621.2" width="10" height="6" rx="1.4" fill="#79dced" opacity="0.92"/><rect x="684.4" y="621.2" width="10" height="6" rx="1.4" fill="#79dced" opacity="0.76"/><polygon points="500,402 548,430 500,458 452,430" fill="#8fcbb5" opacity=".9"/><rect x="488" y="355" width="24" height="58" fill="#456e69"/><circle cx="500" cy="345" r="14" fill="#7fe1dc" opacity=".7"/><rect x="278.4" y="638.0" width="3.2" height="12.8" fill="#443326"/><circle cx="280" cy="634.0" r="8.8" fill="#3f7c5a"/><circle cx="276.0" cy="630.0" r="5.6000000000000005" fill="#56a073" opacity=".8"/><rect x="748.4" y="638.0" width="3.2" height="12.8" fill="#443326"/><circle cx="750" cy="634.0" r="8.8" fill="#3f7c5a"/><circle cx="746.0" cy="630.0" r="5.6000000000000005" fill="#56a073" opacity=".8"/><rect x="588.7" y="670.25" width="2.6" height="10.4" fill="#443326"/><circle cx="590" cy="667.0" r="7.15" fill="#3f7c5a"/><circle cx="586.75" cy="663.75" r="4.55" fill="#56a073" opacity=".8"/></svg>