<svg xmlns="http://www.w3.org/2000/svg" width="1024" height="768" viewBox="0 0 1024 768" fill="none">
  <defs>
    <linearGradient id="ground" x1="240" y1="330" x2="760" y2="690" gradientUnits="userSpaceOnUse">
      <stop stop-color="#244C48"/>
      <stop offset="1" stop-color="#112825"/>
    </linearGradient>
    <linearGradient id="road" x1="300" y1="390" x2="720" y2="630" gradientUnits="userSpaceOnUse">
      <stop stop-color="#3A4B50"/>
      <stop offset="1" stop-color="#1B292E"/>
    </linearGradient>
    <linearGradient id="cyanFace" x1="0" y1="0" x2="1" y2="1">
      <stop stop-color="#2A7892"/>
      <stop offset="1" stop-color="#123845"/>
    </linearGradient>
    <filter id="glow" x="-80%" y="-80%" width="260%" height="260%">
      <feGaussianBlur stdDeviation="9" result="blur"/>
      <feMerge><feMergeNode in="blur"/><feMergeNode in="SourceGraphic"/></feMerge>
    </filter>
    <filter id="soft" x="-40%" y="-40%" width="180%" height="180%">
      <feGaussianBlur stdDeviation="16"/>
    </filter>
  </defs>
<ellipse cx="512" cy="640" rx="260" ry="70" fill="#02080A" opacity="0.52" filter="url(#soft)"/>
<polygon points="512,405 812,555 512,705 212,555" fill="#21463F" stroke="#3E8179" opacity="0.98"/>
<ellipse cx="455" cy="591.8" rx="136.4" ry="34.56" fill="#02080C" opacity="0.42" filter="url(#soft)"/>
<polygon points="345.0,436.0 455,472 455,617 345.0,581.0" fill="#142C35"/>
<polygon points="565.0,436.0 455,472 455,617 565.0,581.0" fill="#5A4A3E"/>
<polygon points="455,400 565.0,436.0 455,472 345.0,436.0" fill="#F0A45E"/>
<rect x="412.0" y="490.0" width="10" height="7" rx="1.5" fill="#FFD77A" opacity="0.92"/>
<rect x="431.0" y="490.0" width="10" height="7" rx="1.5" fill="#8FEAFF" opacity="0.92"/>
<rect x="450.0" y="490.0" width="10" height="7" rx="1.5" fill="#8FEAFF" opacity="0.92"/>
<rect x="469.0" y="490.0" width="10" height="7" rx="1.5" fill="#8FEAFF" opacity="0.92"/>
<rect x="488.0" y="490.0" width="10" height="7" rx="1.5" fill="#FFD77A" opacity="0.92"/>
<rect x="412.0" y="527.0" width="10" height="7" rx="1.5" fill="#8FEAFF" opacity="0.92"/>
<rect x="431.0" y="527.0" width="10" height="7" rx="1.5" fill="#8FEAFF" opacity="0.92"/>
<rect x="450.0" y="527.0" width="10" height="7" rx="1.5" fill="#8FEAFF" opacity="0.92"/>
<rect x="469.0" y="527.0" width="10" height="7" rx="1.5" fill="#FFD77A" opacity="0.92"/>
<rect x="488.0" y="527.0" width="10" height="7" rx="1.5" fill="#8FEAFF" opacity="0.92"/>
<rect x="412.0" y="564.0" width="10" height="7" rx="1.5" fill="#8FEAFF" opacity="0.92"/>
<rect x="431.0" y="564.0" width="10" height="7" rx="1.5" fill="#8FEAFF" opacity="0.92"/>
<rect x="450.0" y="564.0" width="10" height="7" rx="1.5" fill="#FFD77A" opacity="0.92"/>
<rect x="469.0" y="564.0" width="10" height="7" rx="1.5" fill="#8FEAFF" opacity="0.92"/>
<rect x="488.0" y="564.0" width="10" height="7" rx="1.5" fill="#8FEAFF" opacity="0.92"/>
<ellipse cx="650" cy="612.7" rx="89.9" ry="27.84" fill="#02080C" opacity="0.42" filter="url(#soft)"/>
<polygon points="577.5,499.0 650,528 650,633 577.5,604.0" fill="#142C35"/>
<polygon points="722.5,499.0 650,528 650,633 722.5,604.0" fill="#3E5152"/>
<polygon points="650,470 722.5,499.0 650,528 577.5,499.0" fill="#E3A05E"/>
<rect x="616.5" y="546.0" width="10" height="7" rx="1.5" fill="#FFD77A" opacity="0.92"/>
<rect x="635.5" y="546.0" width="10" height="7" rx="1.5" fill="#8FEAFF" opacity="0.92"/>
<rect x="654.5" y="546.0" width="10" height="7" rx="1.5" fill="#8FEAFF" opacity="0.92"/>
<rect x="673.5" y="546.0" width="10" height="7" rx="1.5" fill="#8FEAFF" opacity="0.92"/>
<rect x="616.5" y="581.5" width="10" height="7" rx="1.5" fill="#8FEAFF" opacity="0.92"/>
<rect x="635.5" y="581.5" width="10" height="7" rx="1.5" fill="#8FEAFF" opacity="0.92"/>
<rect x="654.5" y="581.5" width="10" height="7" rx="1.5" fill="#8FEAFF" opacity="0.92"/>
<rect x="673.5" y="581.5" width="10" height="7" rx="1.5" fill="#FFD77A" opacity="0.92"/>
<rect x="360" y="300" width="24" height="240" rx="8" fill="#697274"/><ellipse cx="372" cy="300" rx="12" ry="6" fill="#FFD26C"/>
<rect x="405" y="300" width="24" height="240" rx="8" fill="#697274"/><ellipse cx="417" cy="300" rx="12" ry="6" fill="#FFD26C"/>
<rect x="725" y="300" width="24" height="240" rx="8" fill="#697274"/><ellipse cx="737" cy="300" rx="12" ry="6" fill="#FFD26C"/>
<ellipse cx="512" cy="535" rx="235" ry="112" stroke="#55DEFF" stroke-width="4" opacity="0.24" filter="url(#glow)"/>
</svg>
